%TF.GenerationSoftware,KiCad,Pcbnew,10.0.4*%
%TF.CreationDate,2026-07-23T01:42:37-05:00*%
%TF.ProjectId,micropad1,6d696372-6f70-4616-9431-2e6b69636164,rev?*%
%TF.SameCoordinates,Original*%
%TF.FileFunction,Copper,L2,Bot*%
%TF.FilePolarity,Positive*%
%FSLAX46Y46*%
G04 Gerber Fmt 4.6, Leading zero omitted, Abs format (unit mm)*
G04 Created by KiCad (PCBNEW 10.0.4) date 2026-07-23 01:42:37*
%MOMM*%
%LPD*%
G01*
G04 APERTURE LIST*
G04 Aperture macros list*
%AMRoundRect*
0 Rectangle with rounded corners*
0 $1 Rounding radius*
0 $2 $3 $4 $5 $6 $7 $8 $9 X,Y pos of 4 corners*
0 Add a 4 corners polygon primitive as box body*
4,1,4,$2,$3,$4,$5,$6,$7,$8,$9,$2,$3,0*
0 Add four circle primitives for the rounded corners*
1,1,$1+$1,$2,$3*
1,1,$1+$1,$4,$5*
1,1,$1+$1,$6,$7*
1,1,$1+$1,$8,$9*
0 Add four rect primitives between the rounded corners*
20,1,$1+$1,$2,$3,$4,$5,0*
20,1,$1+$1,$4,$5,$6,$7,0*
20,1,$1+$1,$6,$7,$8,$9,0*
20,1,$1+$1,$8,$9,$2,$3,0*%
G04 Aperture macros list end*
%TA.AperFunction,ComponentPad*%
%ADD10RoundRect,0.250000X0.550000X-0.550000X0.550000X0.550000X-0.550000X0.550000X-0.550000X-0.550000X0*%
%TD*%
%TA.AperFunction,ComponentPad*%
%ADD11C,1.600000*%
%TD*%
%TA.AperFunction,ComponentPad*%
%ADD12C,2.200000*%
%TD*%
%TA.AperFunction,ComponentPad*%
%ADD13RoundRect,0.250000X-0.550000X0.550000X-0.550000X-0.550000X0.550000X-0.550000X0.550000X0.550000X0*%
%TD*%
%TA.AperFunction,ComponentPad*%
%ADD14RoundRect,0.250000X0.550000X0.550000X-0.550000X0.550000X-0.550000X-0.550000X0.550000X-0.550000X0*%
%TD*%
%TA.AperFunction,ComponentPad*%
%ADD15RoundRect,0.250000X-0.550000X-0.550000X0.550000X-0.550000X0.550000X0.550000X-0.550000X0.550000X0*%
%TD*%
%TA.AperFunction,ComponentPad*%
%ADD16RoundRect,0.170000X0.680000X-0.680000X0.680000X0.680000X-0.680000X0.680000X-0.680000X-0.680000X0*%
%TD*%
%TA.AperFunction,ComponentPad*%
%ADD17C,1.700000*%
%TD*%
%TA.AperFunction,ComponentPad*%
%ADD18C,2.000000*%
%TD*%
%TA.AperFunction,ComponentPad*%
%ADD19C,1.400000*%
%TD*%
%TA.AperFunction,Conductor*%
%ADD20C,0.200000*%
%TD*%
G04 APERTURE END LIST*
D10*
%TO.P,D2,1,K_1*%
%TO.N,Row 2*%
X65940000Y-76280000D03*
D11*
%TO.P,D2,2,A_2*%
%TO.N,Net-(D2-A)*%
X65940000Y-68660000D03*
%TD*%
D12*
%TO.P,SW1,1,1_1*%
%TO.N,Column 1*%
X117820000Y-113150000D03*
%TO.P,SW1,2,2_2*%
%TO.N,Net-(D1-A)*%
X111470000Y-115690000D03*
%TD*%
D13*
%TO.P,D9,1,K_1*%
%TO.N,Row 2*%
X65940000Y-83250000D03*
D11*
%TO.P,D9,2,A_2*%
%TO.N,Net-(D9-A)*%
X65940000Y-90870000D03*
%TD*%
D14*
%TO.P,D4,1,K_1*%
%TO.N,Row 1*%
X84770000Y-129190000D03*
D11*
%TO.P,D4,2,A_2*%
%TO.N,Net-(D4-A)*%
X77150000Y-129190000D03*
%TD*%
D13*
%TO.P,D8,1,K_1*%
%TO.N,Row 3*%
X65970000Y-115740000D03*
D11*
%TO.P,D8,2,A_2*%
%TO.N,Net-(D8-A)*%
X65970000Y-123360000D03*
%TD*%
D12*
%TO.P,SW9,1,1_1*%
%TO.N,Column 1*%
X98600000Y-93930000D03*
%TO.P,SW9,2,2_2*%
%TO.N,Net-(D3-A)*%
X92250000Y-96470000D03*
%TD*%
%TO.P,SW7,1,1_1*%
%TO.N,Column 0*%
X117840000Y-74710000D03*
%TO.P,SW7,2,2_2*%
%TO.N,Net-(D5-A)*%
X111490000Y-77250000D03*
%TD*%
%TO.P,SW8,1,1_1*%
%TO.N,Column 0*%
X98620000Y-74700000D03*
%TO.P,SW8,2,2_2*%
%TO.N,Net-(D6-A)*%
X92270000Y-77240000D03*
%TD*%
D10*
%TO.P,D7,1,K_1*%
%TO.N,Row 3*%
X126160000Y-108130000D03*
D11*
%TO.P,D7,2,A_2*%
%TO.N,Net-(D7-A)*%
X126160000Y-100510000D03*
%TD*%
D15*
%TO.P,D1,1,K_1*%
%TO.N,Row 1*%
X103920000Y-129000000D03*
D11*
%TO.P,D1,2,A_2*%
%TO.N,Net-(D1-A)*%
X111540000Y-129000000D03*
%TD*%
D13*
%TO.P,D10,1,K_1*%
%TO.N,Row 1*%
X66110000Y-53490000D03*
D11*
%TO.P,D10,2,A_2*%
%TO.N,Net-(D10-A)*%
X66110000Y-61110000D03*
%TD*%
D10*
%TO.P,D3,1,K_1*%
%TO.N,Row 3*%
X65940000Y-111890000D03*
D11*
%TO.P,D3,2,A_2*%
%TO.N,Net-(D3-A)*%
X65940000Y-104270000D03*
%TD*%
D12*
%TO.P,SW6,1,1_1*%
%TO.N,Column 0*%
X117820000Y-93930000D03*
%TO.P,SW6,2,2_2*%
%TO.N,Net-(D7-A)*%
X111470000Y-96470000D03*
%TD*%
D13*
%TO.P,D5,1,K_1*%
%TO.N,Row 2*%
X126250000Y-82780000D03*
D11*
%TO.P,D5,2,A_2*%
%TO.N,Net-(D5-A)*%
X126250000Y-90400000D03*
%TD*%
D13*
%TO.P,D6,1,K_1*%
%TO.N,Row 0*%
X126160000Y-71190000D03*
D11*
%TO.P,D6,2,A_2*%
%TO.N,Net-(D6-A)*%
X126160000Y-78810000D03*
%TD*%
D12*
%TO.P,SW4,1,1_1*%
%TO.N,Column 2*%
X79390000Y-93930000D03*
%TO.P,SW4,2,2_2*%
%TO.N,Net-(D9-A)*%
X73040000Y-96470000D03*
%TD*%
%TO.P,SW10,1,1_1*%
%TO.N,Column 2*%
X98610000Y-113150000D03*
%TO.P,SW10,2,2_2*%
%TO.N,Net-(D8-A)*%
X92260000Y-115690000D03*
%TD*%
%TO.P,SW2,1,1_1*%
%TO.N,Column 2*%
X79400000Y-55490000D03*
%TO.P,SW2,2,2_2*%
%TO.N,Net-(D10-A)*%
X73050000Y-58030000D03*
%TD*%
%TO.P,SW3,1,1_1*%
%TO.N,Column 1*%
X79400000Y-74710000D03*
%TO.P,SW3,2,2_2*%
%TO.N,Net-(D2-A)*%
X73050000Y-77250000D03*
%TD*%
D16*
%TO.P,U2,1,GND_1*%
%TO.N,Net-(U1-GND)*%
X90300000Y-64060000D03*
D17*
%TO.P,U2,2,VCC_2*%
%TO.N,Net-(U1-5V)*%
X90300000Y-61520000D03*
%TO.P,U2,3,SCL_3*%
%TO.N,Net-(U1-PA8_A4_D4_SDA)*%
X90300000Y-58980000D03*
%TO.P,U2,4,SDA_4*%
%TO.N,Net-(U1-PA9_A5_D5_SCL)*%
X90300000Y-56440000D03*
%TD*%
D12*
%TO.P,SW5,1,1_1*%
%TO.N,Column 0*%
X79390000Y-113150000D03*
%TO.P,SW5,2,2_2*%
%TO.N,Net-(D4-A)*%
X73040000Y-115690000D03*
%TD*%
D17*
%TO.P,U1,1,PA02_A0_D0_1*%
%TO.N,unconnected-(U1-PA02_A0_D0-Pad1)*%
X128240000Y-67750000D03*
D18*
%TO.P,U1,2,PA4_A1_D1_2*%
%TO.N,unconnected-(U1-PA4_A1_D1-Pad2)*%
X125700000Y-67750000D03*
%TO.P,U1,3,PA10_A2_D2_3*%
%TO.N,Column 1*%
X123160000Y-67750000D03*
D11*
%TO.P,U1,4,PA11_A3_D3_4*%
%TO.N,Row 0*%
X120620000Y-67750000D03*
%TO.P,U1,5,PA8_A4_D4_SDA_5*%
%TO.N,Net-(U1-PA8_A4_D4_SDA)*%
X118080000Y-67750000D03*
%TO.P,U1,6,PA9_A5_D5_SCL_6*%
%TO.N,Net-(U1-PA9_A5_D5_SCL)*%
X115540000Y-67750000D03*
%TO.P,U1,7,PB08_A6_D6_TX_7*%
%TO.N,Column 0*%
X113000000Y-67750000D03*
%TO.P,U1,8,PB09_A7_D7_RX_8*%
%TO.N,Row 1*%
X113000000Y-52500000D03*
%TO.P,U1,9,PA7_A8_D8_SCK_9*%
%TO.N,Row 2*%
X115540000Y-52500000D03*
%TO.P,U1,10,PA5_A9_D9_MISO_10*%
%TO.N,Row 3*%
X118080000Y-52500000D03*
D19*
%TO.P,U1,11,PA6_A10_D10_MOSI_11*%
%TO.N,Column 2*%
X120620000Y-52500000D03*
D11*
%TO.P,U1,12,3V3_12*%
%TO.N,unconnected-(U1-3V3-Pad12)*%
X123160000Y-52500000D03*
%TO.P,U1,13,GND_13*%
%TO.N,Net-(U1-GND)*%
X125700000Y-52500000D03*
%TO.P,U1,14,5V_14*%
%TO.N,Net-(U1-5V)*%
X128240000Y-52500000D03*
%TD*%
%TO.N,Row 2*%
D20*
X112010000Y-46800000D02*
X112605000Y-47395000D01*
X75132944Y-55460000D02*
X64010000Y-55460000D01*
X104730000Y-76100000D02*
X104832944Y-76100000D01*
X115540000Y-50540000D02*
X115540000Y-52500000D01*
X112605000Y-47395000D02*
X112605000Y-47605000D01*
X126160000Y-82870000D02*
X126250000Y-82780000D01*
X95772944Y-76100000D02*
X75132944Y-55460000D01*
X95250101Y-73310000D02*
X98040101Y-76100000D01*
X64010000Y-48040000D02*
X65250000Y-46800000D01*
X111602944Y-82870000D02*
X126160000Y-82870000D01*
X64010000Y-55460000D02*
X64010000Y-48040000D01*
X65250000Y-46800000D02*
X112010000Y-46800000D01*
X98040101Y-76100000D02*
X104730000Y-76100000D01*
X68910000Y-73310000D02*
X95250101Y-73310000D01*
X65940000Y-76280000D02*
X68910000Y-73310000D01*
X104832944Y-76100000D02*
X111602944Y-82870000D01*
X104730000Y-76100000D02*
X95772944Y-76100000D01*
X112605000Y-47605000D02*
X115540000Y-50540000D01*
%TO.N,Column 1*%
X117820000Y-113150000D02*
X98600000Y-93930000D01*
X128500000Y-69500000D02*
X128570000Y-69570000D01*
X117820000Y-113150000D02*
X123350000Y-113150000D01*
X124910000Y-69500000D02*
X128500000Y-69500000D01*
X128570000Y-69570000D02*
X128570000Y-107930000D01*
X123160000Y-67750000D02*
X124910000Y-69500000D01*
X128570000Y-107930000D02*
X123350000Y-113150000D01*
%TO.N,Row 1*%
X66900000Y-47390000D02*
X108090000Y-47390000D01*
X66110000Y-53490000D02*
X66110000Y-48180000D01*
X110200000Y-52500000D02*
X113000000Y-52500000D01*
X110070000Y-52370000D02*
X110200000Y-52500000D01*
X110070000Y-49370000D02*
X110070000Y-52370000D01*
X108090000Y-47390000D02*
X110070000Y-49370000D01*
X66110000Y-48180000D02*
X66900000Y-47390000D01*
%TO.N,Row 3*%
X117500000Y-77000000D02*
X120790000Y-77000000D01*
X93570000Y-54930000D02*
X92500000Y-56000000D01*
X118080000Y-52500000D02*
X119080000Y-51500000D01*
X86000000Y-55500000D02*
X86000000Y-65675685D01*
X87324315Y-67000000D02*
X107500000Y-67000000D01*
X122000000Y-53000000D02*
X120070000Y-54930000D01*
X120790000Y-77000000D02*
X121770000Y-76020000D01*
X107500000Y-67000000D02*
X117500000Y-77000000D01*
X120070000Y-54930000D02*
X93570000Y-54930000D01*
X122000000Y-51500000D02*
X122000000Y-53000000D01*
X92500000Y-56000000D02*
X91500000Y-55000000D01*
X128170000Y-107760000D02*
X128170000Y-80730000D01*
X119080000Y-51500000D02*
X122000000Y-51500000D01*
X128170000Y-80730000D02*
X126480000Y-80730000D01*
X126480000Y-80730000D02*
X121770000Y-76020000D01*
X86500000Y-55000000D02*
X86000000Y-55500000D01*
X91500000Y-55000000D02*
X86500000Y-55000000D01*
X126160000Y-108130000D02*
X127800000Y-108130000D01*
X86000000Y-65675685D02*
X87324315Y-67000000D01*
X127800000Y-108130000D02*
X128170000Y-107760000D01*
%TO.N,Column 0*%
X117160000Y-74710000D02*
X117840000Y-74710000D01*
X113000000Y-69870000D02*
X117840000Y-74710000D01*
X113000000Y-67750000D02*
X113000000Y-69870000D01*
%TO.N,Row 0*%
X126160000Y-71190000D02*
X121690000Y-71190000D01*
X121690000Y-71190000D02*
X120500000Y-70000000D01*
X120500000Y-70000000D02*
X120620000Y-69880000D01*
X120620000Y-69880000D02*
X120620000Y-67750000D01*
%TO.N,Column 2*%
X80499999Y-54390001D02*
X79400000Y-55490000D01*
X120620000Y-52500000D02*
X118729999Y-54390001D01*
X118729999Y-54390001D02*
X80499999Y-54390001D01*
%TO.N,Net-(U1-GND)*%
X122870000Y-55330000D02*
X94290000Y-55330000D01*
X88560000Y-60790000D02*
X88560000Y-62320000D01*
X93300000Y-58290000D02*
X91190000Y-60400000D01*
X93300000Y-56320000D02*
X93300000Y-58290000D01*
X89150000Y-60200000D02*
X88560000Y-60790000D01*
X90990000Y-60200000D02*
X89150000Y-60200000D01*
X94290000Y-55330000D02*
X93300000Y-56320000D01*
X91190000Y-60400000D02*
X90990000Y-60200000D01*
X88560000Y-62320000D02*
X90300000Y-64060000D01*
X125700000Y-52500000D02*
X122870000Y-55330000D01*
%TO.N,Net-(U1-5V)*%
X119220000Y-61520000D02*
X90300000Y-61520000D01*
X128240000Y-52500000D02*
X119220000Y-61520000D01*
%TO.N,Net-(U1-PA8_A4_D4_SDA)*%
X87840000Y-59040000D02*
X87840000Y-65400000D01*
X87840000Y-65400000D02*
X116035686Y-65400000D01*
X90300000Y-58980000D02*
X87780000Y-58980000D01*
X116035686Y-65400000D02*
X118232843Y-67597157D01*
X87780000Y-58980000D02*
X87840000Y-59040000D01*
%TO.N,Net-(U1-PA9_A5_D5_SCL)*%
X90300000Y-56440000D02*
X87340000Y-56440000D01*
X86810000Y-65920000D02*
X113710000Y-65920000D01*
X113710000Y-65920000D02*
X115540000Y-67750000D01*
X86810000Y-56970000D02*
X86810000Y-65920000D01*
X87340000Y-56440000D02*
X86810000Y-56970000D01*
%TD*%
M02*
