%TF.GenerationSoftware,KiCad,Pcbnew,10.0.4*%
%TF.CreationDate,2026-07-23T01:42:38-05:00*%
%TF.ProjectId,micropad1,6d696372-6f70-4616-9431-2e6b69636164,rev?*%
%TF.SameCoordinates,Original*%
%TF.FileFunction,Legend,Bot*%
%TF.FilePolarity,Positive*%
%FSLAX46Y46*%
G04 Gerber Fmt 4.6, Leading zero omitted, Abs format (unit mm)*
G04 Created by KiCad (PCBNEW 10.0.4) date 2026-07-23 01:42:38*
%MOMM*%
%LPD*%
G01*
G04 APERTURE LIST*
%ADD10C,0.101600*%
%ADD11C,0.150000*%
%ADD12C,0.127000*%
%ADD13C,0.120000*%
%ADD14C,0.254000*%
%ADD15C,0.025400*%
G04 APERTURE END LIST*
D10*
X123449000Y-59552916D02*
X124168667Y-59552916D01*
X124168667Y-59552916D02*
X124253333Y-59595250D01*
X124253333Y-59595250D02*
X124295667Y-59637583D01*
X124295667Y-59637583D02*
X124338000Y-59722250D01*
X124338000Y-59722250D02*
X124338000Y-59891583D01*
X124338000Y-59891583D02*
X124295667Y-59976250D01*
X124295667Y-59976250D02*
X124253333Y-60018583D01*
X124253333Y-60018583D02*
X124168667Y-60060916D01*
X124168667Y-60060916D02*
X123449000Y-60060916D01*
X124338000Y-60949916D02*
X124338000Y-60441916D01*
X124338000Y-60695916D02*
X123449000Y-60695916D01*
X123449000Y-60695916D02*
X123576000Y-60611249D01*
X123576000Y-60611249D02*
X123660667Y-60526583D01*
X123660667Y-60526583D02*
X123703000Y-60441916D01*
D11*
X120665180Y-61648808D02*
X119665180Y-60982142D01*
X120665180Y-60982142D02*
X119665180Y-61648808D01*
X119665180Y-60601189D02*
X120665180Y-60601189D01*
X119950895Y-60172618D02*
X119950895Y-59696428D01*
X119665180Y-60267856D02*
X120665180Y-59934523D01*
X120665180Y-59934523D02*
X119665180Y-59601190D01*
X120665180Y-59077380D02*
X120665180Y-58886904D01*
X120665180Y-58886904D02*
X120617561Y-58791666D01*
X120617561Y-58791666D02*
X120522323Y-58696428D01*
X120522323Y-58696428D02*
X120331847Y-58648809D01*
X120331847Y-58648809D02*
X119998514Y-58648809D01*
X119998514Y-58648809D02*
X119808038Y-58696428D01*
X119808038Y-58696428D02*
X119712800Y-58791666D01*
X119712800Y-58791666D02*
X119665180Y-58886904D01*
X119665180Y-58886904D02*
X119665180Y-59077380D01*
X119665180Y-59077380D02*
X119712800Y-59172618D01*
X119712800Y-59172618D02*
X119808038Y-59267856D01*
X119808038Y-59267856D02*
X119998514Y-59315475D01*
X119998514Y-59315475D02*
X120331847Y-59315475D01*
X120331847Y-59315475D02*
X120522323Y-59267856D01*
X120522323Y-59267856D02*
X120617561Y-59172618D01*
X120617561Y-59172618D02*
X120665180Y-59077380D01*
X121712800Y-64886904D02*
X121665180Y-64744047D01*
X121665180Y-64744047D02*
X121665180Y-64505952D01*
X121665180Y-64505952D02*
X121712800Y-64410714D01*
X121712800Y-64410714D02*
X121760419Y-64363095D01*
X121760419Y-64363095D02*
X121855657Y-64315476D01*
X121855657Y-64315476D02*
X121950895Y-64315476D01*
X121950895Y-64315476D02*
X122046133Y-64363095D01*
X122046133Y-64363095D02*
X122093752Y-64410714D01*
X122093752Y-64410714D02*
X122141371Y-64505952D01*
X122141371Y-64505952D02*
X122188990Y-64696428D01*
X122188990Y-64696428D02*
X122236609Y-64791666D01*
X122236609Y-64791666D02*
X122284228Y-64839285D01*
X122284228Y-64839285D02*
X122379466Y-64886904D01*
X122379466Y-64886904D02*
X122474704Y-64886904D01*
X122474704Y-64886904D02*
X122569942Y-64839285D01*
X122569942Y-64839285D02*
X122617561Y-64791666D01*
X122617561Y-64791666D02*
X122665180Y-64696428D01*
X122665180Y-64696428D02*
X122665180Y-64458333D01*
X122665180Y-64458333D02*
X122617561Y-64315476D01*
X121712800Y-63505952D02*
X121665180Y-63601190D01*
X121665180Y-63601190D02*
X121665180Y-63791666D01*
X121665180Y-63791666D02*
X121712800Y-63886904D01*
X121712800Y-63886904D02*
X121808038Y-63934523D01*
X121808038Y-63934523D02*
X122188990Y-63934523D01*
X122188990Y-63934523D02*
X122284228Y-63886904D01*
X122284228Y-63886904D02*
X122331847Y-63791666D01*
X122331847Y-63791666D02*
X122331847Y-63601190D01*
X122331847Y-63601190D02*
X122284228Y-63505952D01*
X122284228Y-63505952D02*
X122188990Y-63458333D01*
X122188990Y-63458333D02*
X122093752Y-63458333D01*
X122093752Y-63458333D02*
X121998514Y-63934523D01*
X121712800Y-62648809D02*
X121665180Y-62744047D01*
X121665180Y-62744047D02*
X121665180Y-62934523D01*
X121665180Y-62934523D02*
X121712800Y-63029761D01*
X121712800Y-63029761D02*
X121808038Y-63077380D01*
X121808038Y-63077380D02*
X122188990Y-63077380D01*
X122188990Y-63077380D02*
X122284228Y-63029761D01*
X122284228Y-63029761D02*
X122331847Y-62934523D01*
X122331847Y-62934523D02*
X122331847Y-62744047D01*
X122331847Y-62744047D02*
X122284228Y-62648809D01*
X122284228Y-62648809D02*
X122188990Y-62601190D01*
X122188990Y-62601190D02*
X122093752Y-62601190D01*
X122093752Y-62601190D02*
X121998514Y-63077380D01*
X121712800Y-61791666D02*
X121665180Y-61886904D01*
X121665180Y-61886904D02*
X121665180Y-62077380D01*
X121665180Y-62077380D02*
X121712800Y-62172618D01*
X121712800Y-62172618D02*
X121808038Y-62220237D01*
X121808038Y-62220237D02*
X122188990Y-62220237D01*
X122188990Y-62220237D02*
X122284228Y-62172618D01*
X122284228Y-62172618D02*
X122331847Y-62077380D01*
X122331847Y-62077380D02*
X122331847Y-61886904D01*
X122331847Y-61886904D02*
X122284228Y-61791666D01*
X122284228Y-61791666D02*
X122188990Y-61744047D01*
X122188990Y-61744047D02*
X122093752Y-61744047D01*
X122093752Y-61744047D02*
X121998514Y-62220237D01*
X121665180Y-60886904D02*
X122665180Y-60886904D01*
X121712800Y-60886904D02*
X121665180Y-60982142D01*
X121665180Y-60982142D02*
X121665180Y-61172618D01*
X121665180Y-61172618D02*
X121712800Y-61267856D01*
X121712800Y-61267856D02*
X121760419Y-61315475D01*
X121760419Y-61315475D02*
X121855657Y-61363094D01*
X121855657Y-61363094D02*
X122141371Y-61363094D01*
X122141371Y-61363094D02*
X122236609Y-61315475D01*
X122236609Y-61315475D02*
X122284228Y-61267856D01*
X122284228Y-61267856D02*
X122331847Y-61172618D01*
X122331847Y-61172618D02*
X122331847Y-60982142D01*
X122331847Y-60982142D02*
X122284228Y-60886904D01*
X121712800Y-59696427D02*
X121665180Y-59553570D01*
X121665180Y-59553570D02*
X121665180Y-59315475D01*
X121665180Y-59315475D02*
X121712800Y-59220237D01*
X121712800Y-59220237D02*
X121760419Y-59172618D01*
X121760419Y-59172618D02*
X121855657Y-59124999D01*
X121855657Y-59124999D02*
X121950895Y-59124999D01*
X121950895Y-59124999D02*
X122046133Y-59172618D01*
X122046133Y-59172618D02*
X122093752Y-59220237D01*
X122093752Y-59220237D02*
X122141371Y-59315475D01*
X122141371Y-59315475D02*
X122188990Y-59505951D01*
X122188990Y-59505951D02*
X122236609Y-59601189D01*
X122236609Y-59601189D02*
X122284228Y-59648808D01*
X122284228Y-59648808D02*
X122379466Y-59696427D01*
X122379466Y-59696427D02*
X122474704Y-59696427D01*
X122474704Y-59696427D02*
X122569942Y-59648808D01*
X122569942Y-59648808D02*
X122617561Y-59601189D01*
X122617561Y-59601189D02*
X122665180Y-59505951D01*
X122665180Y-59505951D02*
X122665180Y-59267856D01*
X122665180Y-59267856D02*
X122617561Y-59124999D01*
X122331847Y-58839284D02*
X122331847Y-58458332D01*
X122665180Y-58696427D02*
X121808038Y-58696427D01*
X121808038Y-58696427D02*
X121712800Y-58648808D01*
X121712800Y-58648808D02*
X121665180Y-58553570D01*
X121665180Y-58553570D02*
X121665180Y-58458332D01*
X122331847Y-57696427D02*
X121665180Y-57696427D01*
X122331847Y-58124998D02*
X121808038Y-58124998D01*
X121808038Y-58124998D02*
X121712800Y-58077379D01*
X121712800Y-58077379D02*
X121665180Y-57982141D01*
X121665180Y-57982141D02*
X121665180Y-57839284D01*
X121665180Y-57839284D02*
X121712800Y-57744046D01*
X121712800Y-57744046D02*
X121760419Y-57696427D01*
X121665180Y-56791665D02*
X122665180Y-56791665D01*
X121712800Y-56791665D02*
X121665180Y-56886903D01*
X121665180Y-56886903D02*
X121665180Y-57077379D01*
X121665180Y-57077379D02*
X121712800Y-57172617D01*
X121712800Y-57172617D02*
X121760419Y-57220236D01*
X121760419Y-57220236D02*
X121855657Y-57267855D01*
X121855657Y-57267855D02*
X122141371Y-57267855D01*
X122141371Y-57267855D02*
X122236609Y-57220236D01*
X122236609Y-57220236D02*
X122284228Y-57172617D01*
X122284228Y-57172617D02*
X122331847Y-57077379D01*
X122331847Y-57077379D02*
X122331847Y-56886903D01*
X122331847Y-56886903D02*
X122284228Y-56791665D01*
X121665180Y-56315474D02*
X122331847Y-56315474D01*
X122665180Y-56315474D02*
X122617561Y-56363093D01*
X122617561Y-56363093D02*
X122569942Y-56315474D01*
X122569942Y-56315474D02*
X122617561Y-56267855D01*
X122617561Y-56267855D02*
X122665180Y-56315474D01*
X122665180Y-56315474D02*
X122569942Y-56315474D01*
X121665180Y-55696427D02*
X121712800Y-55791665D01*
X121712800Y-55791665D02*
X121760419Y-55839284D01*
X121760419Y-55839284D02*
X121855657Y-55886903D01*
X121855657Y-55886903D02*
X122141371Y-55886903D01*
X122141371Y-55886903D02*
X122236609Y-55839284D01*
X122236609Y-55839284D02*
X122284228Y-55791665D01*
X122284228Y-55791665D02*
X122331847Y-55696427D01*
X122331847Y-55696427D02*
X122331847Y-55553570D01*
X122331847Y-55553570D02*
X122284228Y-55458332D01*
X122284228Y-55458332D02*
X122236609Y-55410713D01*
X122236609Y-55410713D02*
X122141371Y-55363094D01*
X122141371Y-55363094D02*
X121855657Y-55363094D01*
X121855657Y-55363094D02*
X121760419Y-55410713D01*
X121760419Y-55410713D02*
X121712800Y-55458332D01*
X121712800Y-55458332D02*
X121665180Y-55553570D01*
X121665180Y-55553570D02*
X121665180Y-55696427D01*
%TO.C,U1*%
D12*
X110120000Y-67025000D02*
X110120000Y-53225000D01*
X112120000Y-51225000D02*
X129120000Y-51225000D01*
X125190730Y-55625000D02*
X125190730Y-64625000D01*
X125190730Y-64625000D02*
X132544030Y-64625000D01*
X129120000Y-69025000D02*
X112120000Y-69025000D01*
X131119090Y-53225000D02*
X131119090Y-67025000D01*
X132544030Y-55625000D02*
X125190730Y-55625000D01*
X132544030Y-64625000D02*
X132544030Y-55625000D01*
D13*
X110120000Y-53225000D02*
G75*
G02*
X112120000Y-51225000I2000000J0D01*
G01*
X112120000Y-69025000D02*
G75*
G02*
X110120000Y-67025000I44857J2044857D01*
G01*
X129120000Y-51225000D02*
G75*
G02*
X131120000Y-53225000I-44610J-2044610D01*
G01*
X131120000Y-67025000D02*
G75*
G02*
X129120000Y-69025000I-2044612J44612D01*
G01*
D14*
X129547000Y-71125000D02*
G75*
G02*
X129293000Y-71125000I-127000J0D01*
G01*
X129293000Y-71125000D02*
G75*
G02*
X129547000Y-71125000I127000J0D01*
G01*
D15*
X129181705Y-69012715D02*
X129230473Y-69009667D01*
X129279494Y-69005603D01*
X129181705Y-69012715D01*
X112098426Y-51235508D02*
X112049150Y-51237287D01*
X112000382Y-51240335D01*
X111951361Y-51244399D01*
X111902593Y-51249732D01*
X111853825Y-51256336D01*
X111805310Y-51263956D01*
X111757050Y-51272847D01*
X111709045Y-51282752D01*
X112098426Y-51235508D01*
%TD*%
M02*
