M48
; DRILL file KiCad 10.0.4 date 2026-07-23T01:42:57
; FORMAT={-:-/ absolute / metric / decimal}
; #@! TF.CreationDate,2026-07-23T01:42:57-05:00
; #@! TF.GenerationSoftware,Kicad,Pcbnew,10.0.4
; #@! TF.FileFunction,NonPlated,1,2,NPTH
FMAT,2
METRIC
; #@! TA.AperFunction,NonPlated,NPTH,ComponentDrill
T1C1.700
; #@! TA.AperFunction,NonPlated,NPTH,ComponentDrill
T2C4.000
%
G90
G05
T1
X71.77Y-99.01
X71.77Y-118.23
X71.78Y-60.57
X71.78Y-79.79
X81.93Y-99.01
X81.93Y-118.23
X81.94Y-60.57
X81.94Y-79.79
X90.98Y-99.01
X90.99Y-118.23
X91.0Y-79.78
X101.14Y-99.01
X101.15Y-118.23
X101.16Y-79.78
X110.2Y-99.01
X110.2Y-118.23
X110.22Y-79.79
X120.36Y-99.01
X120.36Y-118.23
X120.38Y-79.79
T2
X76.85Y-99.01
X76.85Y-118.23
X76.86Y-60.57
X76.86Y-79.79
X96.06Y-99.01
X96.07Y-118.23
X96.08Y-79.78
X115.28Y-99.01
X115.28Y-118.23
X115.3Y-79.79
M30
