M48
; DRILL file KiCad 10.0.4 date 2026-07-23T01:42:57
; FORMAT={-:-/ absolute / metric / decimal}
; #@! TF.CreationDate,2026-07-23T01:42:57-05:00
; #@! TF.GenerationSoftware,Kicad,Pcbnew,10.0.4
; #@! TF.FileFunction,Plated,1,2,PTH
FMAT,2
METRIC
; #@! TA.AperFunction,Plated,PTH,ComponentDrill
T1C0.800
; #@! TA.AperFunction,Plated,PTH,ComponentDrill
T2C1.000
; #@! TA.AperFunction,Plated,PTH,ComponentDrill
T3C1.500
%
G90
G05
T1
X65.94Y-68.66
X65.94Y-76.28
X65.94Y-83.25
X65.94Y-90.87
X65.94Y-104.27
X65.94Y-111.89
X65.97Y-115.74
X65.97Y-123.36
X66.11Y-53.49
X66.11Y-61.11
X77.15Y-129.19
X84.77Y-129.19
X103.92Y-129.0
X111.54Y-129.0
X126.16Y-71.19
X126.16Y-78.81
X126.16Y-100.51
X126.16Y-108.13
X126.25Y-82.78
X126.25Y-90.4
T2
X90.3Y-56.44
X90.3Y-58.98
X90.3Y-61.52
X90.3Y-64.06
X113.0Y-52.5
X113.0Y-67.75
X115.54Y-52.5
X115.54Y-67.75
X118.08Y-52.5
X118.08Y-67.75
X120.62Y-52.5
X120.62Y-67.75
X123.16Y-52.5
X123.16Y-67.75
X125.7Y-52.5
X125.7Y-67.75
X128.24Y-52.5
X128.24Y-67.75
T3
X73.04Y-96.47
X73.04Y-115.69
X73.05Y-58.03
X73.05Y-77.25
X79.39Y-93.93
X79.39Y-113.15
X79.4Y-55.49
X79.4Y-74.71
X92.25Y-96.47
X92.26Y-115.69
X92.27Y-77.24
X98.6Y-93.93
X98.61Y-113.15
X98.62Y-74.7
X111.47Y-96.47
X111.47Y-115.69
X111.49Y-77.25
X117.82Y-93.93
X117.82Y-113.15
X117.84Y-74.71
M30
