ISO-10303-21;
HEADER;
/* Generated by software containing ST-Developer
 * from STEP Tools, Inc. (www.steptools.com) 
 */

FILE_DESCRIPTION(
/* description */ (''),
/* implementation_level */ '2;1');

FILE_NAME(
/* name */ 'bottom.step',
/* time_stamp */ '2026-08-12T22:14:53-05:00',
/* author */ (''),
/* organization */ (''),
/* preprocessor_version */ 'ST-DEVELOPER v20.1',
/* originating_system */ 'Autodesk Translation Framework v15.8.0.0',
/* authorisation */ '');

FILE_SCHEMA (('AUTOMOTIVE_DESIGN { 1 0 10303 214 3 1 1 }'));
ENDSEC;

DATA;
#10=MECHANICAL_DESIGN_GEOMETRIC_PRESENTATION_REPRESENTATION('',(#13),#2032);
#11=SHAPE_REPRESENTATION_RELATIONSHIP('SRR','None',#2038,#12);
#12=ADVANCED_BREP_SHAPE_REPRESENTATION('',(#14),#2031);
#13=STYLED_ITEM('',(#2047),#14);
#14=MANIFOLD_SOLID_BREP('Body19',#1128);
#15=B_SPLINE_CURVE_WITH_KNOTS('',3,(#1876,#1877,#1878,#1879,#1880,#1881,
#1882,#1883,#1884,#1885),.UNSPECIFIED.,.F.,.F.,(4,2,2,2,4),(-0.104340663664039,
-0.0625915144829209,-0.0101578809007921,0.,0.00165842784506269),
 .UNSPECIFIED.);
#16=B_SPLINE_CURVE_WITH_KNOTS('',3,(#1894,#1895,#1896,#1897,#1898,#1899,
#1900,#1901,#1902,#1903),.UNSPECIFIED.,.F.,.F.,(4,2,2,2,4),(-0.106255803337656,
-0.104593358983898,-0.0944108774223089,-0.0418502585229206,0.),
 .UNSPECIFIED.);
#17=(
BOUNDED_SURFACE()
B_SPLINE_SURFACE(2,2,((#1836,#1837,#1838),(#1839,#1840,#1841),(#1842,#1843,
#1844)),.UNSPECIFIED.,.F.,.F.,.F.)
B_SPLINE_SURFACE_WITH_KNOTS((3,3),(3,3),(-1.5707963267949,0.),(-1.5707963267949,
8.21909179222767E-18),.UNSPECIFIED.)
GEOMETRIC_REPRESENTATION_ITEM()
RATIONAL_B_SPLINE_SURFACE(((1.,0.707106781186548,1.),(0.70710678118655,
0.500000000000002,0.70710678118655),(1.,0.707106781186548,1.)))
REPRESENTATION_ITEM('')
SURFACE()
);
#18=(
BOUNDED_SURFACE()
B_SPLINE_SURFACE(2,2,((#1859,#1860,#1861),(#1862,#1863,#1864),(#1865,#1866,
#1867)),.UNSPECIFIED.,.F.,.F.,.F.)
B_SPLINE_SURFACE_WITH_KNOTS((3,3),(3,3),(-1.5707963267949,0.),(0.,1.5707963267949),
 .UNSPECIFIED.)
GEOMETRIC_REPRESENTATION_ITEM()
RATIONAL_B_SPLINE_SURFACE(((1.,0.707106781186548,1.),(0.70710678118655,
0.500000000000002,0.70710678118655),(1.,0.707106781186548,1.)))
REPRESENTATION_ITEM('')
SURFACE()
);
#19=(
BOUNDED_SURFACE()
B_SPLINE_SURFACE(2,2,((#1905,#1906,#1907),(#1908,#1909,#1910),(#1911,#1912,
#1913)),.UNSPECIFIED.,.F.,.F.,.F.)
B_SPLINE_SURFACE_WITH_KNOTS((3,3),(3,3),(-1.5707963267949,0.),(1.5707963267949,
3.14159265358979),.UNSPECIFIED.)
GEOMETRIC_REPRESENTATION_ITEM()
RATIONAL_B_SPLINE_SURFACE(((1.,0.707106781186547,1.),(0.707106781186543,
0.499999999999997,0.707106781186543),(1.,0.707106781186547,1.)))
REPRESENTATION_ITEM('')
SURFACE()
);
#20=(
BOUNDED_SURFACE()
B_SPLINE_SURFACE(2,2,((#1925,#1926,#1927),(#1928,#1929,#1930),(#1931,#1932,
#1933)),.UNSPECIFIED.,.F.,.F.,.F.)
B_SPLINE_SURFACE_WITH_KNOTS((3,3),(3,3),(-1.5707963267949,0.),(-3.14159265358979,
-1.5707963267949),.UNSPECIFIED.)
GEOMETRIC_REPRESENTATION_ITEM()
RATIONAL_B_SPLINE_SURFACE(((1.,0.707106781186548,1.),(0.707106781186541,
0.499999999999996,0.707106781186541),(1.,0.707106781186548,1.)))
REPRESENTATION_ITEM('')
SURFACE()
);
#21=TOROIDAL_SURFACE('',#1159,2.49874921777191,1.);
#22=TOROIDAL_SURFACE('',#1163,2.49874921777191,1.);
#23=TOROIDAL_SURFACE('',#1169,2.49874921777191,1.);
#24=TOROIDAL_SURFACE('',#1173,2.49874921777191,1.);
#25=TOROIDAL_SURFACE('',#1177,2.49874921777191,1.);
#26=TOROIDAL_SURFACE('',#1183,2.49874921777191,1.);
#27=TOROIDAL_SURFACE('',#1187,2.49874921777191,1.);
#28=TOROIDAL_SURFACE('',#1193,2.49874921777191,1.);
#29=TOROIDAL_SURFACE('',#1197,2.49874921777191,1.);
#30=TOROIDAL_SURFACE('',#1201,2.49874921777191,1.);
#31=TOROIDAL_SURFACE('',#1230,2.5,1.);
#32=TOROIDAL_SURFACE('',#1237,2.5,1.);
#33=TOROIDAL_SURFACE('',#1249,2.5,1.);
#34=TOROIDAL_SURFACE('',#1255,2.5,1.);
#35=FACE_BOUND('',#299,.T.);
#36=FACE_BOUND('',#300,.T.);
#37=FACE_BOUND('',#301,.T.);
#38=FACE_BOUND('',#302,.T.);
#39=FACE_BOUND('',#303,.T.);
#40=FACE_BOUND('',#324,.T.);
#41=LINE('',#1662,#120);
#42=LINE('',#1666,#121);
#43=LINE('',#1670,#122);
#44=LINE('',#1674,#123);
#45=LINE('',#1678,#124);
#46=LINE('',#1682,#125);
#47=LINE('',#1686,#126);
#48=LINE('',#1690,#127);
#49=LINE('',#1694,#128);
#50=LINE('',#1696,#129);
#51=LINE('',#1698,#130);
#52=LINE('',#1699,#131);
#53=LINE('',#1703,#132);
#54=LINE('',#1705,#133);
#55=LINE('',#1707,#134);
#56=LINE('',#1708,#135);
#57=LINE('',#1711,#136);
#58=LINE('',#1713,#137);
#59=LINE('',#1714,#138);
#60=LINE('',#1717,#139);
#61=LINE('',#1719,#140);
#62=LINE('',#1721,#141);
#63=LINE('',#1722,#142);
#64=LINE('',#1725,#143);
#65=LINE('',#1726,#144);
#66=LINE('',#1729,#145);
#67=LINE('',#1731,#146);
#68=LINE('',#1733,#147);
#69=LINE('',#1735,#148);
#70=LINE('',#1736,#149);
#71=LINE('',#1742,#150);
#72=LINE('',#1745,#151);
#73=LINE('',#1762,#152);
#74=LINE('',#1763,#153);
#75=LINE('',#1785,#154);
#76=LINE('',#1786,#155);
#77=LINE('',#1803,#156);
#78=LINE('',#1804,#157);
#79=LINE('',#1824,#158);
#80=LINE('',#1828,#159);
#81=LINE('',#1832,#160);
#82=LINE('',#1835,#161);
#83=LINE('',#1857,#162);
#84=LINE('',#1858,#163);
#85=LINE('',#1886,#164);
#86=LINE('',#1888,#165);
#87=LINE('',#1892,#166);
#88=LINE('',#1904,#167);
#89=LINE('',#1923,#168);
#90=LINE('',#1924,#169);
#91=LINE('',#1940,#170);
#92=LINE('',#1941,#171);
#93=LINE('',#1943,#172);
#94=LINE('',#1944,#173);
#95=LINE('',#1956,#174);
#96=LINE('',#1965,#175);
#97=LINE('',#1969,#176);
#98=LINE('',#1972,#177);
#99=LINE('',#1973,#178);
#100=LINE('',#1976,#179);
#101=LINE('',#1977,#180);
#102=LINE('',#1979,#181);
#103=LINE('',#1981,#182);
#104=LINE('',#1983,#183);
#105=LINE('',#1993,#184);
#106=LINE('',#1999,#185);
#107=LINE('',#2001,#186);
#108=LINE('',#2003,#187);
#109=LINE('',#2004,#188);
#110=LINE('',#2006,#189);
#111=LINE('',#2008,#190);
#112=LINE('',#2010,#191);
#113=LINE('',#2012,#192);
#114=LINE('',#2013,#193);
#115=LINE('',#2015,#194);
#116=LINE('',#2018,#195);
#117=LINE('',#2019,#196);
#118=LINE('',#2022,#197);
#119=LINE('',#2025,#198);
#120=VECTOR('',#1297,2.35);
#121=VECTOR('',#1302,2.35);
#122=VECTOR('',#1307,2.35);
#123=VECTOR('',#1312,2.35);
#124=VECTOR('',#1315,10.);
#125=VECTOR('',#1318,10.);
#126=VECTOR('',#1321,10.);
#127=VECTOR('',#1324,10.);
#128=VECTOR('',#1327,10.);
#129=VECTOR('',#1328,10.);
#130=VECTOR('',#1329,10.);
#131=VECTOR('',#1330,10.);
#132=VECTOR('',#1333,10.);
#133=VECTOR('',#1334,10.);
#134=VECTOR('',#1335,10.);
#135=VECTOR('',#1336,10.);
#136=VECTOR('',#1339,10.);
#137=VECTOR('',#1340,10.);
#138=VECTOR('',#1341,10.);
#139=VECTOR('',#1344,10.);
#140=VECTOR('',#1345,10.);
#141=VECTOR('',#1346,10.);
#142=VECTOR('',#1347,10.);
#143=VECTOR('',#1350,10.);
#144=VECTOR('',#1351,10.);
#145=VECTOR('',#1354,10.);
#146=VECTOR('',#1355,10.);
#147=VECTOR('',#1356,10.);
#148=VECTOR('',#1357,10.);
#149=VECTOR('',#1358,10.);
#150=VECTOR('',#1363,1.);
#151=VECTOR('',#1366,10.);
#152=VECTOR('',#1387,1.);
#153=VECTOR('',#1388,10.);
#154=VECTOR('',#1417,1.);
#155=VECTOR('',#1418,10.);
#156=VECTOR('',#1439,10.);
#157=VECTOR('',#1440,1.);
#158=VECTOR('',#1467,10.);
#159=VECTOR('',#1470,10.);
#160=VECTOR('',#1473,10.);
#161=VECTOR('',#1476,10.);
#162=VECTOR('',#1489,10.);
#163=VECTOR('',#1490,10.);
#164=VECTOR('',#1499,10.);
#165=VECTOR('',#1500,10.);
#166=VECTOR('',#1503,10.);
#167=VECTOR('',#1504,10.);
#168=VECTOR('',#1515,10.);
#169=VECTOR('',#1516,10.);
#170=VECTOR('',#1525,10.);
#171=VECTOR('',#1526,10.);
#172=VECTOR('',#1529,10.);
#173=VECTOR('',#1530,10.);
#174=VECTOR('',#1545,10.);
#175=VECTOR('',#1556,10.);
#176=VECTOR('',#1559,10.);
#177=VECTOR('',#1562,10.);
#178=VECTOR('',#1563,10.);
#179=VECTOR('',#1568,10.);
#180=VECTOR('',#1569,10.);
#181=VECTOR('',#1572,10.);
#182=VECTOR('',#1575,10.);
#183=VECTOR('',#1578,10.);
#184=VECTOR('',#1591,10.);
#185=VECTOR('',#1600,10.);
#186=VECTOR('',#1603,10.);
#187=VECTOR('',#1606,10.);
#188=VECTOR('',#1607,10.);
#189=VECTOR('',#1610,10.);
#190=VECTOR('',#1613,10.);
#191=VECTOR('',#1616,10.);
#192=VECTOR('',#1619,10.);
#193=VECTOR('',#1620,10.);
#194=VECTOR('',#1623,10.);
#195=VECTOR('',#1628,10.);
#196=VECTOR('',#1629,10.);
#197=VECTOR('',#1634,10.);
#198=VECTOR('',#1639,10.);
#199=CYLINDRICAL_SURFACE('',#1138,2.35);
#200=CYLINDRICAL_SURFACE('',#1140,2.35);
#201=CYLINDRICAL_SURFACE('',#1142,2.35);
#202=CYLINDRICAL_SURFACE('',#1144,2.35);
#203=CYLINDRICAL_SURFACE('',#1156,1.);
#204=CYLINDRICAL_SURFACE('',#1167,1.);
#205=CYLINDRICAL_SURFACE('',#1181,1.);
#206=CYLINDRICAL_SURFACE('',#1191,1.);
#207=CYLINDRICAL_SURFACE('',#1213,1.);
#208=CYLINDRICAL_SURFACE('',#1218,1.);
#209=CYLINDRICAL_SURFACE('',#1223,1.);
#210=CYLINDRICAL_SURFACE('',#1228,1.);
#211=CYLINDRICAL_SURFACE('',#1229,2.);
#212=CYLINDRICAL_SURFACE('',#1235,1.);
#213=CYLINDRICAL_SURFACE('',#1245,2.);
#214=CYLINDRICAL_SURFACE('',#1247,2.);
#215=CYLINDRICAL_SURFACE('',#1248,2.);
#216=CYLINDRICAL_SURFACE('',#1253,1.);
#217=CYLINDRICAL_SURFACE('',#1258,1.);
#218=CYLINDRICAL_SURFACE('',#1259,1.);
#219=CYLINDRICAL_SURFACE('',#1261,1.5);
#220=CYLINDRICAL_SURFACE('',#1263,1.5);
#221=CYLINDRICAL_SURFACE('',#1264,1.5);
#222=CYLINDRICAL_SURFACE('',#1266,1.5);
#223=FACE_OUTER_BOUND('',#290,.T.);
#224=FACE_OUTER_BOUND('',#291,.T.);
#225=FACE_OUTER_BOUND('',#292,.T.);
#226=FACE_OUTER_BOUND('',#293,.T.);
#227=FACE_OUTER_BOUND('',#294,.T.);
#228=FACE_OUTER_BOUND('',#295,.T.);
#229=FACE_OUTER_BOUND('',#296,.T.);
#230=FACE_OUTER_BOUND('',#297,.T.);
#231=FACE_OUTER_BOUND('',#298,.T.);
#232=FACE_OUTER_BOUND('',#304,.T.);
#233=FACE_OUTER_BOUND('',#305,.T.);
#234=FACE_OUTER_BOUND('',#306,.T.);
#235=FACE_OUTER_BOUND('',#307,.T.);
#236=FACE_OUTER_BOUND('',#308,.T.);
#237=FACE_OUTER_BOUND('',#309,.T.);
#238=FACE_OUTER_BOUND('',#310,.T.);
#239=FACE_OUTER_BOUND('',#311,.T.);
#240=FACE_OUTER_BOUND('',#312,.T.);
#241=FACE_OUTER_BOUND('',#313,.T.);
#242=FACE_OUTER_BOUND('',#314,.T.);
#243=FACE_OUTER_BOUND('',#315,.T.);
#244=FACE_OUTER_BOUND('',#316,.T.);
#245=FACE_OUTER_BOUND('',#317,.T.);
#246=FACE_OUTER_BOUND('',#318,.T.);
#247=FACE_OUTER_BOUND('',#319,.T.);
#248=FACE_OUTER_BOUND('',#320,.T.);
#249=FACE_OUTER_BOUND('',#321,.T.);
#250=FACE_OUTER_BOUND('',#322,.T.);
#251=FACE_OUTER_BOUND('',#323,.T.);
#252=FACE_OUTER_BOUND('',#325,.T.);
#253=FACE_OUTER_BOUND('',#326,.T.);
#254=FACE_OUTER_BOUND('',#327,.T.);
#255=FACE_OUTER_BOUND('',#328,.T.);
#256=FACE_OUTER_BOUND('',#329,.T.);
#257=FACE_OUTER_BOUND('',#330,.T.);
#258=FACE_OUTER_BOUND('',#331,.T.);
#259=FACE_OUTER_BOUND('',#332,.T.);
#260=FACE_OUTER_BOUND('',#333,.T.);
#261=FACE_OUTER_BOUND('',#334,.T.);
#262=FACE_OUTER_BOUND('',#335,.T.);
#263=FACE_OUTER_BOUND('',#336,.T.);
#264=FACE_OUTER_BOUND('',#337,.T.);
#265=FACE_OUTER_BOUND('',#338,.T.);
#266=FACE_OUTER_BOUND('',#339,.T.);
#267=FACE_OUTER_BOUND('',#340,.T.);
#268=FACE_OUTER_BOUND('',#341,.T.);
#269=FACE_OUTER_BOUND('',#342,.T.);
#270=FACE_OUTER_BOUND('',#343,.T.);
#271=FACE_OUTER_BOUND('',#344,.T.);
#272=FACE_OUTER_BOUND('',#345,.T.);
#273=FACE_OUTER_BOUND('',#346,.T.);
#274=FACE_OUTER_BOUND('',#347,.T.);
#275=FACE_OUTER_BOUND('',#348,.T.);
#276=FACE_OUTER_BOUND('',#349,.T.);
#277=FACE_OUTER_BOUND('',#350,.T.);
#278=FACE_OUTER_BOUND('',#351,.T.);
#279=FACE_OUTER_BOUND('',#352,.T.);
#280=FACE_OUTER_BOUND('',#353,.T.);
#281=FACE_OUTER_BOUND('',#354,.T.);
#282=FACE_OUTER_BOUND('',#355,.T.);
#283=FACE_OUTER_BOUND('',#356,.T.);
#284=FACE_OUTER_BOUND('',#357,.T.);
#285=FACE_OUTER_BOUND('',#358,.T.);
#286=FACE_OUTER_BOUND('',#359,.T.);
#287=FACE_OUTER_BOUND('',#360,.T.);
#288=FACE_OUTER_BOUND('',#361,.T.);
#289=FACE_OUTER_BOUND('',#362,.T.);
#290=EDGE_LOOP('',(#710));
#291=EDGE_LOOP('',(#711));
#292=EDGE_LOOP('',(#712));
#293=EDGE_LOOP('',(#713));
#294=EDGE_LOOP('',(#714,#715,#716,#717));
#295=EDGE_LOOP('',(#718,#719,#720,#721));
#296=EDGE_LOOP('',(#722,#723,#724,#725));
#297=EDGE_LOOP('',(#726,#727,#728,#729));
#298=EDGE_LOOP('',(#730,#731,#732,#733,#734,#735,#736,#737));
#299=EDGE_LOOP('',(#738));
#300=EDGE_LOOP('',(#739,#740,#741,#742));
#301=EDGE_LOOP('',(#743));
#302=EDGE_LOOP('',(#744));
#303=EDGE_LOOP('',(#745));
#304=EDGE_LOOP('',(#746,#747,#748,#749));
#305=EDGE_LOOP('',(#750,#751,#752,#753));
#306=EDGE_LOOP('',(#754,#755,#756,#757,#758,#759));
#307=EDGE_LOOP('',(#760,#761,#762,#763));
#308=EDGE_LOOP('',(#764,#765,#766,#767,#768,#769,#770,#771));
#309=EDGE_LOOP('',(#772,#773,#774,#775));
#310=EDGE_LOOP('',(#776,#777,#778,#779));
#311=EDGE_LOOP('',(#780,#781,#782,#783));
#312=EDGE_LOOP('',(#784,#785,#786,#787));
#313=EDGE_LOOP('',(#788,#789,#790,#791));
#314=EDGE_LOOP('',(#792,#793,#794,#795));
#315=EDGE_LOOP('',(#796,#797,#798,#799));
#316=EDGE_LOOP('',(#800,#801,#802,#803));
#317=EDGE_LOOP('',(#804,#805,#806,#807));
#318=EDGE_LOOP('',(#808,#809,#810,#811));
#319=EDGE_LOOP('',(#812,#813,#814,#815));
#320=EDGE_LOOP('',(#816,#817,#818,#819));
#321=EDGE_LOOP('',(#820,#821,#822,#823));
#322=EDGE_LOOP('',(#824,#825,#826,#827));
#323=EDGE_LOOP('',(#828,#829,#830,#831,#832,#833,#834,#835));
#324=EDGE_LOOP('',(#836,#837,#838,#839,#840,#841,#842,#843,#844,#845,#846,
#847,#848,#849));
#325=EDGE_LOOP('',(#850,#851,#852,#853));
#326=EDGE_LOOP('',(#854,#855,#856,#857));
#327=EDGE_LOOP('',(#858,#859,#860,#861));
#328=EDGE_LOOP('',(#862,#863,#864,#865,#866,#867,#868,#869));
#329=EDGE_LOOP('',(#870,#871,#872,#873));
#330=EDGE_LOOP('',(#874,#875,#876,#877));
#331=EDGE_LOOP('',(#878,#879,#880,#881));
#332=EDGE_LOOP('',(#882,#883,#884,#885));
#333=EDGE_LOOP('',(#886,#887,#888,#889));
#334=EDGE_LOOP('',(#890,#891,#892,#893,#894));
#335=EDGE_LOOP('',(#895,#896,#897,#898));
#336=EDGE_LOOP('',(#899,#900,#901,#902,#903));
#337=EDGE_LOOP('',(#904,#905,#906,#907,#908,#909,#910,#911,#912,#913,#914,
#915));
#338=EDGE_LOOP('',(#916,#917,#918,#919,#920,#921,#922,#923));
#339=EDGE_LOOP('',(#924,#925,#926,#927));
#340=EDGE_LOOP('',(#928,#929,#930,#931));
#341=EDGE_LOOP('',(#932,#933,#934,#935));
#342=EDGE_LOOP('',(#936,#937,#938,#939));
#343=EDGE_LOOP('',(#940,#941,#942,#943));
#344=EDGE_LOOP('',(#944,#945,#946,#947));
#345=EDGE_LOOP('',(#948,#949,#950,#951));
#346=EDGE_LOOP('',(#952,#953,#954,#955));
#347=EDGE_LOOP('',(#956,#957,#958,#959));
#348=EDGE_LOOP('',(#960,#961,#962,#963));
#349=EDGE_LOOP('',(#964,#965,#966,#967));
#350=EDGE_LOOP('',(#968,#969,#970,#971));
#351=EDGE_LOOP('',(#972,#973,#974,#975));
#352=EDGE_LOOP('',(#976,#977,#978,#979));
#353=EDGE_LOOP('',(#980,#981,#982,#983));
#354=EDGE_LOOP('',(#984,#985,#986,#987));
#355=EDGE_LOOP('',(#988,#989,#990,#991,#992,#993,#994,#995,#996,#997,#998,
#999,#1000,#1001,#1002,#1003,#1004,#1005,#1006,#1007));
#356=EDGE_LOOP('',(#1008,#1009,#1010,#1011));
#357=EDGE_LOOP('',(#1012,#1013,#1014,#1015));
#358=EDGE_LOOP('',(#1016,#1017,#1018,#1019));
#359=EDGE_LOOP('',(#1020,#1021,#1022,#1023));
#360=EDGE_LOOP('',(#1024,#1025,#1026,#1027));
#361=EDGE_LOOP('',(#1028,#1029,#1030,#1031));
#362=EDGE_LOOP('',(#1032,#1033,#1034,#1035));
#363=CIRCLE('',#1131,2.35);
#364=CIRCLE('',#1133,2.35);
#365=CIRCLE('',#1135,2.35);
#366=CIRCLE('',#1137,2.35);
#367=CIRCLE('',#1139,2.35);
#368=CIRCLE('',#1141,2.35);
#369=CIRCLE('',#1143,2.35);
#370=CIRCLE('',#1145,2.35);
#371=CIRCLE('',#1147,2.00000000000002);
#372=CIRCLE('',#1148,1.99999999999999);
#373=CIRCLE('',#1149,2.);
#374=CIRCLE('',#1150,2.);
#375=CIRCLE('',#1157,1.);
#376=CIRCLE('',#1158,0.999999999999996);
#377=CIRCLE('',#1160,1.);
#378=CIRCLE('',#1161,2.49874921777191);
#379=CIRCLE('',#1162,1.5);
#380=CIRCLE('',#1164,0.999999999999996);
#381=CIRCLE('',#1165,1.5);
#382=CIRCLE('',#1166,2.49874921777191);
#383=CIRCLE('',#1168,1.);
#384=CIRCLE('',#1170,0.999999999999996);
#385=CIRCLE('',#1171,1.5);
#386=CIRCLE('',#1172,2.49874921777191);
#387=CIRCLE('',#1174,1.);
#388=CIRCLE('',#1175,2.49874921777191);
#389=CIRCLE('',#1176,1.5);
#390=CIRCLE('',#1178,0.999999999999996);
#391=CIRCLE('',#1179,1.5);
#392=CIRCLE('',#1180,2.49874921777191);
#393=CIRCLE('',#1182,1.);
#394=CIRCLE('',#1184,0.999999999999996);
#395=CIRCLE('',#1185,1.5);
#396=CIRCLE('',#1186,2.49874921777191);
#397=CIRCLE('',#1188,1.);
#398=CIRCLE('',#1189,2.49874921777191);
#399=CIRCLE('',#1190,1.5);
#400=CIRCLE('',#1192,0.999999999999996);
#401=CIRCLE('',#1194,1.);
#402=CIRCLE('',#1195,2.49874921777191);
#403=CIRCLE('',#1196,1.5);
#404=CIRCLE('',#1198,0.999999999999996);
#405=CIRCLE('',#1199,1.5);
#406=CIRCLE('',#1200,2.49874921777191);
#407=CIRCLE('',#1202,2.49874921777191);
#408=CIRCLE('',#1203,1.5);
#409=CIRCLE('',#1205,1.5);
#410=CIRCLE('',#1206,1.5);
#411=CIRCLE('',#1207,1.5);
#412=CIRCLE('',#1208,1.5);
#413=CIRCLE('',#1209,1.);
#414=CIRCLE('',#1210,1.);
#415=CIRCLE('',#1211,1.);
#416=CIRCLE('',#1212,2.);
#417=CIRCLE('',#1214,1.);
#418=CIRCLE('',#1215,1.);
#419=CIRCLE('',#1216,2.);
#420=CIRCLE('',#1217,1.);
#421=CIRCLE('',#1219,1.);
#422=CIRCLE('',#1220,1.);
#423=CIRCLE('',#1221,2.);
#424=CIRCLE('',#1222,1.);
#425=CIRCLE('',#1224,1.);
#426=CIRCLE('',#1225,1.);
#427=CIRCLE('',#1226,2.);
#428=CIRCLE('',#1227,1.);
#429=CIRCLE('',#1231,0.999999999999996);
#430=CIRCLE('',#1232,1.5);
#431=CIRCLE('',#1233,0.999999999999996);
#432=CIRCLE('',#1234,2.5);
#433=CIRCLE('',#1236,0.999999999999996);
#434=CIRCLE('',#1238,2.5);
#435=CIRCLE('',#1239,0.999999999999996);
#436=CIRCLE('',#1240,1.5);
#437=CIRCLE('',#1242,2.5);
#438=CIRCLE('',#1243,2.5);
#439=CIRCLE('',#1250,1.);
#440=CIRCLE('',#1251,0.999999999999996);
#441=CIRCLE('',#1252,1.5);
#442=CIRCLE('',#1254,0.999999999999996);
#443=CIRCLE('',#1256,0.999999999999996);
#444=CIRCLE('',#1257,1.5);
#445=VERTEX_POINT('',#1648);
#446=VERTEX_POINT('',#1651);
#447=VERTEX_POINT('',#1654);
#448=VERTEX_POINT('',#1657);
#449=VERTEX_POINT('',#1660);
#450=VERTEX_POINT('',#1664);
#451=VERTEX_POINT('',#1668);
#452=VERTEX_POINT('',#1672);
#453=VERTEX_POINT('',#1676);
#454=VERTEX_POINT('',#1677);
#455=VERTEX_POINT('',#1679);
#456=VERTEX_POINT('',#1681);
#457=VERTEX_POINT('',#1683);
#458=VERTEX_POINT('',#1685);
#459=VERTEX_POINT('',#1687);
#460=VERTEX_POINT('',#1689);
#461=VERTEX_POINT('',#1692);
#462=VERTEX_POINT('',#1693);
#463=VERTEX_POINT('',#1695);
#464=VERTEX_POINT('',#1697);
#465=VERTEX_POINT('',#1701);
#466=VERTEX_POINT('',#1702);
#467=VERTEX_POINT('',#1704);
#468=VERTEX_POINT('',#1706);
#469=VERTEX_POINT('',#1710);
#470=VERTEX_POINT('',#1712);
#471=VERTEX_POINT('',#1716);
#472=VERTEX_POINT('',#1718);
#473=VERTEX_POINT('',#1720);
#474=VERTEX_POINT('',#1724);
#475=VERTEX_POINT('',#1728);
#476=VERTEX_POINT('',#1730);
#477=VERTEX_POINT('',#1732);
#478=VERTEX_POINT('',#1734);
#479=VERTEX_POINT('',#1738);
#480=VERTEX_POINT('',#1739);
#481=VERTEX_POINT('',#1741);
#482=VERTEX_POINT('',#1743);
#483=VERTEX_POINT('',#1747);
#484=VERTEX_POINT('',#1748);
#485=VERTEX_POINT('',#1753);
#486=VERTEX_POINT('',#1754);
#487=VERTEX_POINT('',#1759);
#488=VERTEX_POINT('',#1760);
#489=VERTEX_POINT('',#1765);
#490=VERTEX_POINT('',#1766);
#491=VERTEX_POINT('',#1771);
#492=VERTEX_POINT('',#1772);
#493=VERTEX_POINT('',#1777);
#494=VERTEX_POINT('',#1782);
#495=VERTEX_POINT('',#1783);
#496=VERTEX_POINT('',#1788);
#497=VERTEX_POINT('',#1789);
#498=VERTEX_POINT('',#1794);
#499=VERTEX_POINT('',#1795);
#500=VERTEX_POINT('',#1800);
#501=VERTEX_POINT('',#1801);
#502=VERTEX_POINT('',#1806);
#503=VERTEX_POINT('',#1807);
#504=VERTEX_POINT('',#1812);
#505=VERTEX_POINT('',#1820);
#506=VERTEX_POINT('',#1821);
#507=VERTEX_POINT('',#1823);
#508=VERTEX_POINT('',#1825);
#509=VERTEX_POINT('',#1827);
#510=VERTEX_POINT('',#1829);
#511=VERTEX_POINT('',#1831);
#512=VERTEX_POINT('',#1833);
#513=VERTEX_POINT('',#1845);
#514=VERTEX_POINT('',#1846);
#515=VERTEX_POINT('',#1848);
#516=VERTEX_POINT('',#1850);
#517=VERTEX_POINT('',#1854);
#518=VERTEX_POINT('',#1855);
#519=VERTEX_POINT('',#1868);
#520=VERTEX_POINT('',#1869);
#521=VERTEX_POINT('',#1874);
#522=VERTEX_POINT('',#1875);
#523=VERTEX_POINT('',#1887);
#524=VERTEX_POINT('',#1889);
#525=VERTEX_POINT('',#1891);
#526=VERTEX_POINT('',#1893);
#527=VERTEX_POINT('',#1914);
#528=VERTEX_POINT('',#1915);
#529=VERTEX_POINT('',#1920);
#530=VERTEX_POINT('',#1921);
#531=VERTEX_POINT('',#1934);
#532=VERTEX_POINT('',#1935);
#533=VERTEX_POINT('',#1946);
#534=VERTEX_POINT('',#1948);
#535=VERTEX_POINT('',#1950);
#536=VERTEX_POINT('',#1954);
#537=VERTEX_POINT('',#1958);
#538=VERTEX_POINT('',#1960);
#539=VERTEX_POINT('',#1964);
#540=VERTEX_POINT('',#1966);
#541=VERTEX_POINT('',#1968);
#542=VERTEX_POINT('',#1970);
#543=VERTEX_POINT('',#1985);
#544=VERTEX_POINT('',#1987);
#545=VERTEX_POINT('',#1991);
#546=VERTEX_POINT('',#1995);
#547=EDGE_CURVE('',#445,#445,#363,.T.);
#548=EDGE_CURVE('',#446,#446,#364,.T.);
#549=EDGE_CURVE('',#447,#447,#365,.T.);
#550=EDGE_CURVE('',#448,#448,#366,.T.);
#551=EDGE_CURVE('',#449,#449,#367,.T.);
#552=EDGE_CURVE('',#449,#447,#41,.T.);
#553=EDGE_CURVE('',#450,#450,#368,.T.);
#554=EDGE_CURVE('',#450,#445,#42,.T.);
#555=EDGE_CURVE('',#451,#451,#369,.T.);
#556=EDGE_CURVE('',#451,#446,#43,.T.);
#557=EDGE_CURVE('',#452,#452,#370,.T.);
#558=EDGE_CURVE('',#452,#448,#44,.T.);
#559=EDGE_CURVE('',#453,#454,#45,.T.);
#560=EDGE_CURVE('',#454,#455,#371,.T.);
#561=EDGE_CURVE('',#455,#456,#46,.T.);
#562=EDGE_CURVE('',#456,#457,#372,.T.);
#563=EDGE_CURVE('',#457,#458,#47,.T.);
#564=EDGE_CURVE('',#458,#459,#373,.T.);
#565=EDGE_CURVE('',#459,#460,#48,.T.);
#566=EDGE_CURVE('',#460,#453,#374,.T.);
#567=EDGE_CURVE('',#461,#462,#49,.T.);
#568=EDGE_CURVE('',#462,#463,#50,.T.);
#569=EDGE_CURVE('',#463,#464,#51,.T.);
#570=EDGE_CURVE('',#464,#461,#52,.T.);
#571=EDGE_CURVE('',#465,#466,#53,.T.);
#572=EDGE_CURVE('',#467,#466,#54,.T.);
#573=EDGE_CURVE('',#468,#467,#55,.T.);
#574=EDGE_CURVE('',#465,#468,#56,.T.);
#575=EDGE_CURVE('',#469,#468,#57,.T.);
#576=EDGE_CURVE('',#470,#469,#58,.T.);
#577=EDGE_CURVE('',#465,#470,#59,.T.);
#578=EDGE_CURVE('',#467,#471,#60,.T.);
#579=EDGE_CURVE('',#472,#471,#61,.T.);
#580=EDGE_CURVE('',#473,#472,#62,.T.);
#581=EDGE_CURVE('',#469,#473,#63,.T.);
#582=EDGE_CURVE('',#474,#466,#64,.T.);
#583=EDGE_CURVE('',#471,#474,#65,.T.);
#584=EDGE_CURVE('',#470,#475,#66,.T.);
#585=EDGE_CURVE('',#476,#475,#67,.T.);
#586=EDGE_CURVE('',#477,#476,#68,.T.);
#587=EDGE_CURVE('',#478,#477,#69,.T.);
#588=EDGE_CURVE('',#474,#478,#70,.T.);
#589=EDGE_CURVE('',#479,#480,#375,.T.);
#590=EDGE_CURVE('',#480,#481,#71,.T.);
#591=EDGE_CURVE('',#481,#482,#376,.T.);
#592=EDGE_CURVE('',#479,#482,#72,.T.);
#593=EDGE_CURVE('',#483,#484,#377,.T.);
#594=EDGE_CURVE('',#484,#480,#378,.T.);
#595=EDGE_CURVE('',#479,#483,#379,.T.);
#596=EDGE_CURVE('',#485,#486,#380,.T.);
#597=EDGE_CURVE('',#482,#486,#381,.F.);
#598=EDGE_CURVE('',#481,#485,#382,.T.);
#599=EDGE_CURVE('',#487,#488,#383,.T.);
#600=EDGE_CURVE('',#488,#484,#73,.T.);
#601=EDGE_CURVE('',#487,#483,#74,.T.);
#602=EDGE_CURVE('',#489,#490,#384,.T.);
#603=EDGE_CURVE('',#486,#490,#385,.T.);
#604=EDGE_CURVE('',#485,#489,#386,.T.);
#605=EDGE_CURVE('',#491,#492,#387,.T.);
#606=EDGE_CURVE('',#492,#488,#388,.T.);
#607=EDGE_CURVE('',#487,#491,#389,.T.);
#608=EDGE_CURVE('',#493,#472,#390,.T.);
#609=EDGE_CURVE('',#490,#472,#391,.T.);
#610=EDGE_CURVE('',#489,#493,#392,.T.);
#611=EDGE_CURVE('',#494,#495,#393,.T.);
#612=EDGE_CURVE('',#495,#492,#75,.T.);
#613=EDGE_CURVE('',#494,#491,#76,.T.);
#614=EDGE_CURVE('',#496,#497,#394,.T.);
#615=EDGE_CURVE('',#472,#497,#395,.T.);
#616=EDGE_CURVE('',#493,#496,#396,.T.);
#617=EDGE_CURVE('',#498,#499,#397,.T.);
#618=EDGE_CURVE('',#499,#495,#398,.T.);
#619=EDGE_CURVE('',#494,#498,#399,.T.);
#620=EDGE_CURVE('',#500,#501,#400,.T.);
#621=EDGE_CURVE('',#497,#501,#77,.T.);
#622=EDGE_CURVE('',#496,#500,#78,.T.);
#623=EDGE_CURVE('',#502,#503,#401,.T.);
#624=EDGE_CURVE('',#503,#499,#402,.T.);
#625=EDGE_CURVE('',#502,#498,#403,.T.);
#626=EDGE_CURVE('',#504,#473,#404,.T.);
#627=EDGE_CURVE('',#501,#473,#405,.T.);
#628=EDGE_CURVE('',#500,#504,#406,.T.);
#629=EDGE_CURVE('',#504,#503,#407,.T.);
#630=EDGE_CURVE('',#473,#502,#408,.T.);
#631=EDGE_CURVE('',#505,#506,#409,.T.);
#632=EDGE_CURVE('',#507,#505,#79,.T.);
#633=EDGE_CURVE('',#508,#507,#410,.T.);
#634=EDGE_CURVE('',#509,#508,#80,.T.);
#635=EDGE_CURVE('',#510,#509,#411,.T.);
#636=EDGE_CURVE('',#511,#510,#81,.T.);
#637=EDGE_CURVE('',#512,#511,#412,.T.);
#638=EDGE_CURVE('',#506,#512,#82,.T.);
#639=EDGE_CURVE('',#513,#514,#413,.T.);
#640=EDGE_CURVE('',#514,#515,#414,.T.);
#641=EDGE_CURVE('',#515,#516,#415,.T.);
#642=EDGE_CURVE('',#516,#513,#416,.T.);
#643=EDGE_CURVE('',#517,#518,#417,.T.);
#644=EDGE_CURVE('',#518,#516,#83,.T.);
#645=EDGE_CURVE('',#515,#517,#84,.T.);
#646=EDGE_CURVE('',#519,#520,#418,.T.);
#647=EDGE_CURVE('',#520,#518,#419,.T.);
#648=EDGE_CURVE('',#517,#519,#420,.T.);
#649=EDGE_CURVE('',#521,#522,#15,.T.);
#650=EDGE_CURVE('',#522,#520,#85,.T.);
#651=EDGE_CURVE('',#519,#523,#86,.T.);
#652=EDGE_CURVE('',#523,#524,#421,.T.);
#653=EDGE_CURVE('',#524,#525,#87,.T.);
#654=EDGE_CURVE('',#525,#526,#16,.T.);
#655=EDGE_CURVE('',#526,#521,#88,.T.);
#656=EDGE_CURVE('',#527,#528,#422,.T.);
#657=EDGE_CURVE('',#528,#524,#423,.T.);
#658=EDGE_CURVE('',#523,#527,#424,.T.);
#659=EDGE_CURVE('',#529,#530,#425,.T.);
#660=EDGE_CURVE('',#530,#528,#89,.T.);
#661=EDGE_CURVE('',#527,#529,#90,.T.);
#662=EDGE_CURVE('',#531,#532,#426,.T.);
#663=EDGE_CURVE('',#532,#530,#427,.T.);
#664=EDGE_CURVE('',#529,#531,#428,.T.);
#665=EDGE_CURVE('',#531,#514,#91,.T.);
#666=EDGE_CURVE('',#513,#532,#92,.T.);
#667=EDGE_CURVE('',#520,#455,#93,.T.);
#668=EDGE_CURVE('',#454,#518,#94,.T.);
#669=EDGE_CURVE('',#521,#533,#429,.T.);
#670=EDGE_CURVE('',#533,#534,#430,.T.);
#671=EDGE_CURVE('',#535,#534,#431,.T.);
#672=EDGE_CURVE('',#535,#522,#432,.T.);
#673=EDGE_CURVE('',#526,#536,#433,.T.);
#674=EDGE_CURVE('',#536,#533,#95,.T.);
#675=EDGE_CURVE('',#525,#537,#434,.T.);
#676=EDGE_CURVE('',#537,#538,#435,.T.);
#677=EDGE_CURVE('',#538,#536,#436,.T.);
#678=EDGE_CURVE('',#539,#535,#96,.T.);
#679=EDGE_CURVE('',#540,#539,#437,.T.);
#680=EDGE_CURVE('',#541,#540,#97,.T.);
#681=EDGE_CURVE('',#542,#541,#438,.T.);
#682=EDGE_CURVE('',#537,#542,#98,.T.);
#683=EDGE_CURVE('',#456,#524,#99,.T.);
#684=EDGE_CURVE('',#516,#453,#100,.T.);
#685=EDGE_CURVE('',#460,#513,#101,.T.);
#686=EDGE_CURVE('',#532,#459,#102,.T.);
#687=EDGE_CURVE('',#458,#530,#103,.T.);
#688=EDGE_CURVE('',#528,#457,#104,.T.);
#689=EDGE_CURVE('',#543,#542,#439,.T.);
#690=EDGE_CURVE('',#541,#544,#440,.T.);
#691=EDGE_CURVE('',#544,#543,#441,.T.);
#692=EDGE_CURVE('',#540,#545,#442,.T.);
#693=EDGE_CURVE('',#545,#544,#105,.T.);
#694=EDGE_CURVE('',#539,#546,#443,.T.);
#695=EDGE_CURVE('',#546,#545,#444,.T.);
#696=EDGE_CURVE('',#534,#546,#106,.T.);
#697=EDGE_CURVE('',#543,#538,#107,.T.);
#698=EDGE_CURVE('',#536,#509,#108,.T.);
#699=EDGE_CURVE('',#533,#508,#109,.T.);
#700=EDGE_CURVE('',#538,#510,#110,.T.);
#701=EDGE_CURVE('',#543,#511,#111,.T.);
#702=EDGE_CURVE('',#544,#512,#112,.T.);
#703=EDGE_CURVE('',#546,#505,#113,.T.);
#704=EDGE_CURVE('',#545,#506,#114,.T.);
#705=EDGE_CURVE('',#534,#507,#115,.T.);
#706=EDGE_CURVE('',#463,#478,#116,.T.);
#707=EDGE_CURVE('',#462,#475,#117,.T.);
#708=EDGE_CURVE('',#477,#464,#118,.T.);
#709=EDGE_CURVE('',#461,#476,#119,.T.);
#710=ORIENTED_EDGE('',*,*,#547,.F.);
#711=ORIENTED_EDGE('',*,*,#548,.F.);
#712=ORIENTED_EDGE('',*,*,#549,.F.);
#713=ORIENTED_EDGE('',*,*,#550,.F.);
#714=ORIENTED_EDGE('',*,*,#551,.F.);
#715=ORIENTED_EDGE('',*,*,#552,.T.);
#716=ORIENTED_EDGE('',*,*,#549,.T.);
#717=ORIENTED_EDGE('',*,*,#552,.F.);
#718=ORIENTED_EDGE('',*,*,#553,.F.);
#719=ORIENTED_EDGE('',*,*,#554,.T.);
#720=ORIENTED_EDGE('',*,*,#547,.T.);
#721=ORIENTED_EDGE('',*,*,#554,.F.);
#722=ORIENTED_EDGE('',*,*,#555,.F.);
#723=ORIENTED_EDGE('',*,*,#556,.T.);
#724=ORIENTED_EDGE('',*,*,#548,.T.);
#725=ORIENTED_EDGE('',*,*,#556,.F.);
#726=ORIENTED_EDGE('',*,*,#557,.F.);
#727=ORIENTED_EDGE('',*,*,#558,.T.);
#728=ORIENTED_EDGE('',*,*,#550,.T.);
#729=ORIENTED_EDGE('',*,*,#558,.F.);
#730=ORIENTED_EDGE('',*,*,#559,.T.);
#731=ORIENTED_EDGE('',*,*,#560,.T.);
#732=ORIENTED_EDGE('',*,*,#561,.T.);
#733=ORIENTED_EDGE('',*,*,#562,.T.);
#734=ORIENTED_EDGE('',*,*,#563,.T.);
#735=ORIENTED_EDGE('',*,*,#564,.T.);
#736=ORIENTED_EDGE('',*,*,#565,.T.);
#737=ORIENTED_EDGE('',*,*,#566,.T.);
#738=ORIENTED_EDGE('',*,*,#557,.T.);
#739=ORIENTED_EDGE('',*,*,#567,.T.);
#740=ORIENTED_EDGE('',*,*,#568,.T.);
#741=ORIENTED_EDGE('',*,*,#569,.T.);
#742=ORIENTED_EDGE('',*,*,#570,.T.);
#743=ORIENTED_EDGE('',*,*,#555,.T.);
#744=ORIENTED_EDGE('',*,*,#553,.T.);
#745=ORIENTED_EDGE('',*,*,#551,.T.);
#746=ORIENTED_EDGE('',*,*,#571,.T.);
#747=ORIENTED_EDGE('',*,*,#572,.F.);
#748=ORIENTED_EDGE('',*,*,#573,.F.);
#749=ORIENTED_EDGE('',*,*,#574,.F.);
#750=ORIENTED_EDGE('',*,*,#574,.T.);
#751=ORIENTED_EDGE('',*,*,#575,.F.);
#752=ORIENTED_EDGE('',*,*,#576,.F.);
#753=ORIENTED_EDGE('',*,*,#577,.F.);
#754=ORIENTED_EDGE('',*,*,#573,.T.);
#755=ORIENTED_EDGE('',*,*,#578,.T.);
#756=ORIENTED_EDGE('',*,*,#579,.F.);
#757=ORIENTED_EDGE('',*,*,#580,.F.);
#758=ORIENTED_EDGE('',*,*,#581,.F.);
#759=ORIENTED_EDGE('',*,*,#575,.T.);
#760=ORIENTED_EDGE('',*,*,#572,.T.);
#761=ORIENTED_EDGE('',*,*,#582,.F.);
#762=ORIENTED_EDGE('',*,*,#583,.F.);
#763=ORIENTED_EDGE('',*,*,#578,.F.);
#764=ORIENTED_EDGE('',*,*,#582,.T.);
#765=ORIENTED_EDGE('',*,*,#571,.F.);
#766=ORIENTED_EDGE('',*,*,#577,.T.);
#767=ORIENTED_EDGE('',*,*,#584,.T.);
#768=ORIENTED_EDGE('',*,*,#585,.F.);
#769=ORIENTED_EDGE('',*,*,#586,.F.);
#770=ORIENTED_EDGE('',*,*,#587,.F.);
#771=ORIENTED_EDGE('',*,*,#588,.F.);
#772=ORIENTED_EDGE('',*,*,#589,.T.);
#773=ORIENTED_EDGE('',*,*,#590,.T.);
#774=ORIENTED_EDGE('',*,*,#591,.T.);
#775=ORIENTED_EDGE('',*,*,#592,.F.);
#776=ORIENTED_EDGE('',*,*,#593,.T.);
#777=ORIENTED_EDGE('',*,*,#594,.T.);
#778=ORIENTED_EDGE('',*,*,#589,.F.);
#779=ORIENTED_EDGE('',*,*,#595,.T.);
#780=ORIENTED_EDGE('',*,*,#596,.T.);
#781=ORIENTED_EDGE('',*,*,#597,.F.);
#782=ORIENTED_EDGE('',*,*,#591,.F.);
#783=ORIENTED_EDGE('',*,*,#598,.T.);
#784=ORIENTED_EDGE('',*,*,#599,.T.);
#785=ORIENTED_EDGE('',*,*,#600,.T.);
#786=ORIENTED_EDGE('',*,*,#593,.F.);
#787=ORIENTED_EDGE('',*,*,#601,.F.);
#788=ORIENTED_EDGE('',*,*,#602,.T.);
#789=ORIENTED_EDGE('',*,*,#603,.F.);
#790=ORIENTED_EDGE('',*,*,#596,.F.);
#791=ORIENTED_EDGE('',*,*,#604,.T.);
#792=ORIENTED_EDGE('',*,*,#605,.T.);
#793=ORIENTED_EDGE('',*,*,#606,.T.);
#794=ORIENTED_EDGE('',*,*,#599,.F.);
#795=ORIENTED_EDGE('',*,*,#607,.T.);
#796=ORIENTED_EDGE('',*,*,#608,.T.);
#797=ORIENTED_EDGE('',*,*,#609,.F.);
#798=ORIENTED_EDGE('',*,*,#602,.F.);
#799=ORIENTED_EDGE('',*,*,#610,.T.);
#800=ORIENTED_EDGE('',*,*,#611,.T.);
#801=ORIENTED_EDGE('',*,*,#612,.T.);
#802=ORIENTED_EDGE('',*,*,#605,.F.);
#803=ORIENTED_EDGE('',*,*,#613,.F.);
#804=ORIENTED_EDGE('',*,*,#614,.T.);
#805=ORIENTED_EDGE('',*,*,#615,.F.);
#806=ORIENTED_EDGE('',*,*,#608,.F.);
#807=ORIENTED_EDGE('',*,*,#616,.T.);
#808=ORIENTED_EDGE('',*,*,#617,.T.);
#809=ORIENTED_EDGE('',*,*,#618,.T.);
#810=ORIENTED_EDGE('',*,*,#611,.F.);
#811=ORIENTED_EDGE('',*,*,#619,.T.);
#812=ORIENTED_EDGE('',*,*,#620,.T.);
#813=ORIENTED_EDGE('',*,*,#621,.F.);
#814=ORIENTED_EDGE('',*,*,#614,.F.);
#815=ORIENTED_EDGE('',*,*,#622,.T.);
#816=ORIENTED_EDGE('',*,*,#623,.T.);
#817=ORIENTED_EDGE('',*,*,#624,.T.);
#818=ORIENTED_EDGE('',*,*,#617,.F.);
#819=ORIENTED_EDGE('',*,*,#625,.F.);
#820=ORIENTED_EDGE('',*,*,#626,.T.);
#821=ORIENTED_EDGE('',*,*,#627,.F.);
#822=ORIENTED_EDGE('',*,*,#620,.F.);
#823=ORIENTED_EDGE('',*,*,#628,.T.);
#824=ORIENTED_EDGE('',*,*,#626,.F.);
#825=ORIENTED_EDGE('',*,*,#629,.T.);
#826=ORIENTED_EDGE('',*,*,#623,.F.);
#827=ORIENTED_EDGE('',*,*,#630,.F.);
#828=ORIENTED_EDGE('',*,*,#631,.F.);
#829=ORIENTED_EDGE('',*,*,#632,.F.);
#830=ORIENTED_EDGE('',*,*,#633,.F.);
#831=ORIENTED_EDGE('',*,*,#634,.F.);
#832=ORIENTED_EDGE('',*,*,#635,.F.);
#833=ORIENTED_EDGE('',*,*,#636,.F.);
#834=ORIENTED_EDGE('',*,*,#637,.F.);
#835=ORIENTED_EDGE('',*,*,#638,.F.);
#836=ORIENTED_EDGE('',*,*,#590,.F.);
#837=ORIENTED_EDGE('',*,*,#594,.F.);
#838=ORIENTED_EDGE('',*,*,#600,.F.);
#839=ORIENTED_EDGE('',*,*,#606,.F.);
#840=ORIENTED_EDGE('',*,*,#612,.F.);
#841=ORIENTED_EDGE('',*,*,#618,.F.);
#842=ORIENTED_EDGE('',*,*,#624,.F.);
#843=ORIENTED_EDGE('',*,*,#629,.F.);
#844=ORIENTED_EDGE('',*,*,#628,.F.);
#845=ORIENTED_EDGE('',*,*,#622,.F.);
#846=ORIENTED_EDGE('',*,*,#616,.F.);
#847=ORIENTED_EDGE('',*,*,#610,.F.);
#848=ORIENTED_EDGE('',*,*,#604,.F.);
#849=ORIENTED_EDGE('',*,*,#598,.F.);
#850=ORIENTED_EDGE('',*,*,#639,.T.);
#851=ORIENTED_EDGE('',*,*,#640,.T.);
#852=ORIENTED_EDGE('',*,*,#641,.T.);
#853=ORIENTED_EDGE('',*,*,#642,.T.);
#854=ORIENTED_EDGE('',*,*,#643,.T.);
#855=ORIENTED_EDGE('',*,*,#644,.T.);
#856=ORIENTED_EDGE('',*,*,#641,.F.);
#857=ORIENTED_EDGE('',*,*,#645,.T.);
#858=ORIENTED_EDGE('',*,*,#646,.T.);
#859=ORIENTED_EDGE('',*,*,#647,.T.);
#860=ORIENTED_EDGE('',*,*,#643,.F.);
#861=ORIENTED_EDGE('',*,*,#648,.T.);
#862=ORIENTED_EDGE('',*,*,#649,.T.);
#863=ORIENTED_EDGE('',*,*,#650,.T.);
#864=ORIENTED_EDGE('',*,*,#646,.F.);
#865=ORIENTED_EDGE('',*,*,#651,.T.);
#866=ORIENTED_EDGE('',*,*,#652,.T.);
#867=ORIENTED_EDGE('',*,*,#653,.T.);
#868=ORIENTED_EDGE('',*,*,#654,.T.);
#869=ORIENTED_EDGE('',*,*,#655,.T.);
#870=ORIENTED_EDGE('',*,*,#656,.T.);
#871=ORIENTED_EDGE('',*,*,#657,.T.);
#872=ORIENTED_EDGE('',*,*,#652,.F.);
#873=ORIENTED_EDGE('',*,*,#658,.T.);
#874=ORIENTED_EDGE('',*,*,#659,.T.);
#875=ORIENTED_EDGE('',*,*,#660,.T.);
#876=ORIENTED_EDGE('',*,*,#656,.F.);
#877=ORIENTED_EDGE('',*,*,#661,.T.);
#878=ORIENTED_EDGE('',*,*,#662,.T.);
#879=ORIENTED_EDGE('',*,*,#663,.T.);
#880=ORIENTED_EDGE('',*,*,#659,.F.);
#881=ORIENTED_EDGE('',*,*,#664,.T.);
#882=ORIENTED_EDGE('',*,*,#662,.F.);
#883=ORIENTED_EDGE('',*,*,#665,.T.);
#884=ORIENTED_EDGE('',*,*,#639,.F.);
#885=ORIENTED_EDGE('',*,*,#666,.T.);
#886=ORIENTED_EDGE('',*,*,#647,.F.);
#887=ORIENTED_EDGE('',*,*,#667,.T.);
#888=ORIENTED_EDGE('',*,*,#560,.F.);
#889=ORIENTED_EDGE('',*,*,#668,.T.);
#890=ORIENTED_EDGE('',*,*,#649,.F.);
#891=ORIENTED_EDGE('',*,*,#669,.T.);
#892=ORIENTED_EDGE('',*,*,#670,.T.);
#893=ORIENTED_EDGE('',*,*,#671,.F.);
#894=ORIENTED_EDGE('',*,*,#672,.T.);
#895=ORIENTED_EDGE('',*,*,#655,.F.);
#896=ORIENTED_EDGE('',*,*,#673,.T.);
#897=ORIENTED_EDGE('',*,*,#674,.T.);
#898=ORIENTED_EDGE('',*,*,#669,.F.);
#899=ORIENTED_EDGE('',*,*,#654,.F.);
#900=ORIENTED_EDGE('',*,*,#675,.T.);
#901=ORIENTED_EDGE('',*,*,#676,.T.);
#902=ORIENTED_EDGE('',*,*,#677,.T.);
#903=ORIENTED_EDGE('',*,*,#673,.F.);
#904=ORIENTED_EDGE('',*,*,#650,.F.);
#905=ORIENTED_EDGE('',*,*,#672,.F.);
#906=ORIENTED_EDGE('',*,*,#678,.F.);
#907=ORIENTED_EDGE('',*,*,#679,.F.);
#908=ORIENTED_EDGE('',*,*,#680,.F.);
#909=ORIENTED_EDGE('',*,*,#681,.F.);
#910=ORIENTED_EDGE('',*,*,#682,.F.);
#911=ORIENTED_EDGE('',*,*,#675,.F.);
#912=ORIENTED_EDGE('',*,*,#653,.F.);
#913=ORIENTED_EDGE('',*,*,#683,.F.);
#914=ORIENTED_EDGE('',*,*,#561,.F.);
#915=ORIENTED_EDGE('',*,*,#667,.F.);
#916=ORIENTED_EDGE('',*,*,#640,.F.);
#917=ORIENTED_EDGE('',*,*,#665,.F.);
#918=ORIENTED_EDGE('',*,*,#664,.F.);
#919=ORIENTED_EDGE('',*,*,#661,.F.);
#920=ORIENTED_EDGE('',*,*,#658,.F.);
#921=ORIENTED_EDGE('',*,*,#651,.F.);
#922=ORIENTED_EDGE('',*,*,#648,.F.);
#923=ORIENTED_EDGE('',*,*,#645,.F.);
#924=ORIENTED_EDGE('',*,*,#642,.F.);
#925=ORIENTED_EDGE('',*,*,#684,.T.);
#926=ORIENTED_EDGE('',*,*,#566,.F.);
#927=ORIENTED_EDGE('',*,*,#685,.T.);
#928=ORIENTED_EDGE('',*,*,#666,.F.);
#929=ORIENTED_EDGE('',*,*,#685,.F.);
#930=ORIENTED_EDGE('',*,*,#565,.F.);
#931=ORIENTED_EDGE('',*,*,#686,.F.);
#932=ORIENTED_EDGE('',*,*,#663,.F.);
#933=ORIENTED_EDGE('',*,*,#686,.T.);
#934=ORIENTED_EDGE('',*,*,#564,.F.);
#935=ORIENTED_EDGE('',*,*,#687,.T.);
#936=ORIENTED_EDGE('',*,*,#657,.F.);
#937=ORIENTED_EDGE('',*,*,#688,.T.);
#938=ORIENTED_EDGE('',*,*,#562,.F.);
#939=ORIENTED_EDGE('',*,*,#683,.T.);
#940=ORIENTED_EDGE('',*,*,#689,.T.);
#941=ORIENTED_EDGE('',*,*,#681,.T.);
#942=ORIENTED_EDGE('',*,*,#690,.T.);
#943=ORIENTED_EDGE('',*,*,#691,.T.);
#944=ORIENTED_EDGE('',*,*,#692,.T.);
#945=ORIENTED_EDGE('',*,*,#693,.T.);
#946=ORIENTED_EDGE('',*,*,#690,.F.);
#947=ORIENTED_EDGE('',*,*,#680,.T.);
#948=ORIENTED_EDGE('',*,*,#694,.T.);
#949=ORIENTED_EDGE('',*,*,#695,.T.);
#950=ORIENTED_EDGE('',*,*,#692,.F.);
#951=ORIENTED_EDGE('',*,*,#679,.T.);
#952=ORIENTED_EDGE('',*,*,#671,.T.);
#953=ORIENTED_EDGE('',*,*,#696,.T.);
#954=ORIENTED_EDGE('',*,*,#694,.F.);
#955=ORIENTED_EDGE('',*,*,#678,.T.);
#956=ORIENTED_EDGE('',*,*,#676,.F.);
#957=ORIENTED_EDGE('',*,*,#682,.T.);
#958=ORIENTED_EDGE('',*,*,#689,.F.);
#959=ORIENTED_EDGE('',*,*,#697,.T.);
#960=ORIENTED_EDGE('',*,*,#674,.F.);
#961=ORIENTED_EDGE('',*,*,#698,.T.);
#962=ORIENTED_EDGE('',*,*,#634,.T.);
#963=ORIENTED_EDGE('',*,*,#699,.F.);
#964=ORIENTED_EDGE('',*,*,#677,.F.);
#965=ORIENTED_EDGE('',*,*,#700,.T.);
#966=ORIENTED_EDGE('',*,*,#635,.T.);
#967=ORIENTED_EDGE('',*,*,#698,.F.);
#968=ORIENTED_EDGE('',*,*,#697,.F.);
#969=ORIENTED_EDGE('',*,*,#701,.T.);
#970=ORIENTED_EDGE('',*,*,#636,.T.);
#971=ORIENTED_EDGE('',*,*,#700,.F.);
#972=ORIENTED_EDGE('',*,*,#691,.F.);
#973=ORIENTED_EDGE('',*,*,#702,.T.);
#974=ORIENTED_EDGE('',*,*,#637,.T.);
#975=ORIENTED_EDGE('',*,*,#701,.F.);
#976=ORIENTED_EDGE('',*,*,#695,.F.);
#977=ORIENTED_EDGE('',*,*,#703,.T.);
#978=ORIENTED_EDGE('',*,*,#631,.T.);
#979=ORIENTED_EDGE('',*,*,#704,.F.);
#980=ORIENTED_EDGE('',*,*,#696,.F.);
#981=ORIENTED_EDGE('',*,*,#705,.T.);
#982=ORIENTED_EDGE('',*,*,#632,.T.);
#983=ORIENTED_EDGE('',*,*,#703,.F.);
#984=ORIENTED_EDGE('',*,*,#670,.F.);
#985=ORIENTED_EDGE('',*,*,#699,.T.);
#986=ORIENTED_EDGE('',*,*,#633,.T.);
#987=ORIENTED_EDGE('',*,*,#705,.F.);
#988=ORIENTED_EDGE('',*,*,#609,.T.);
#989=ORIENTED_EDGE('',*,*,#579,.T.);
#990=ORIENTED_EDGE('',*,*,#583,.T.);
#991=ORIENTED_EDGE('',*,*,#588,.T.);
#992=ORIENTED_EDGE('',*,*,#706,.F.);
#993=ORIENTED_EDGE('',*,*,#568,.F.);
#994=ORIENTED_EDGE('',*,*,#707,.T.);
#995=ORIENTED_EDGE('',*,*,#584,.F.);
#996=ORIENTED_EDGE('',*,*,#576,.T.);
#997=ORIENTED_EDGE('',*,*,#581,.T.);
#998=ORIENTED_EDGE('',*,*,#630,.T.);
#999=ORIENTED_EDGE('',*,*,#625,.T.);
#1000=ORIENTED_EDGE('',*,*,#619,.F.);
#1001=ORIENTED_EDGE('',*,*,#613,.T.);
#1002=ORIENTED_EDGE('',*,*,#607,.F.);
#1003=ORIENTED_EDGE('',*,*,#601,.T.);
#1004=ORIENTED_EDGE('',*,*,#595,.F.);
#1005=ORIENTED_EDGE('',*,*,#592,.T.);
#1006=ORIENTED_EDGE('',*,*,#597,.T.);
#1007=ORIENTED_EDGE('',*,*,#603,.T.);
#1008=ORIENTED_EDGE('',*,*,#580,.T.);
#1009=ORIENTED_EDGE('',*,*,#615,.T.);
#1010=ORIENTED_EDGE('',*,*,#621,.T.);
#1011=ORIENTED_EDGE('',*,*,#627,.T.);
#1012=ORIENTED_EDGE('',*,*,#587,.T.);
#1013=ORIENTED_EDGE('',*,*,#708,.T.);
#1014=ORIENTED_EDGE('',*,*,#569,.F.);
#1015=ORIENTED_EDGE('',*,*,#706,.T.);
#1016=ORIENTED_EDGE('',*,*,#693,.F.);
#1017=ORIENTED_EDGE('',*,*,#704,.T.);
#1018=ORIENTED_EDGE('',*,*,#638,.T.);
#1019=ORIENTED_EDGE('',*,*,#702,.F.);
#1020=ORIENTED_EDGE('',*,*,#585,.T.);
#1021=ORIENTED_EDGE('',*,*,#707,.F.);
#1022=ORIENTED_EDGE('',*,*,#567,.F.);
#1023=ORIENTED_EDGE('',*,*,#709,.T.);
#1024=ORIENTED_EDGE('',*,*,#586,.T.);
#1025=ORIENTED_EDGE('',*,*,#709,.F.);
#1026=ORIENTED_EDGE('',*,*,#570,.F.);
#1027=ORIENTED_EDGE('',*,*,#708,.F.);
#1028=ORIENTED_EDGE('',*,*,#660,.F.);
#1029=ORIENTED_EDGE('',*,*,#687,.F.);
#1030=ORIENTED_EDGE('',*,*,#563,.F.);
#1031=ORIENTED_EDGE('',*,*,#688,.F.);
#1032=ORIENTED_EDGE('',*,*,#644,.F.);
#1033=ORIENTED_EDGE('',*,*,#668,.F.);
#1034=ORIENTED_EDGE('',*,*,#559,.F.);
#1035=ORIENTED_EDGE('',*,*,#684,.F.);
#1036=PLANE('',#1130);
#1037=PLANE('',#1132);
#1038=PLANE('',#1134);
#1039=PLANE('',#1136);
#1040=PLANE('',#1146);
#1041=PLANE('',#1151);
#1042=PLANE('',#1152);
#1043=PLANE('',#1153);
#1044=PLANE('',#1154);
#1045=PLANE('',#1155);
#1046=PLANE('',#1204);
#1047=PLANE('',#1241);
#1048=PLANE('',#1244);
#1049=PLANE('',#1246);
#1050=PLANE('',#1260);
#1051=PLANE('',#1262);
#1052=PLANE('',#1265);
#1053=PLANE('',#1267);
#1054=PLANE('',#1268);
#1055=PLANE('',#1269);
#1056=PLANE('',#1270);
#1057=PLANE('',#1271);
#1058=PLANE('',#1272);
#1059=PLANE('',#1273);
#1060=PLANE('',#1274);
#1061=ADVANCED_FACE('',(#223),#1036,.T.);
#1062=ADVANCED_FACE('',(#224),#1037,.T.);
#1063=ADVANCED_FACE('',(#225),#1038,.T.);
#1064=ADVANCED_FACE('',(#226),#1039,.T.);
#1065=ADVANCED_FACE('',(#227),#199,.F.);
#1066=ADVANCED_FACE('',(#228),#200,.F.);
#1067=ADVANCED_FACE('',(#229),#201,.F.);
#1068=ADVANCED_FACE('',(#230),#202,.F.);
#1069=ADVANCED_FACE('',(#231,#35,#36,#37,#38,#39),#1040,.T.);
#1070=ADVANCED_FACE('',(#232),#1041,.T.);
#1071=ADVANCED_FACE('',(#233),#1042,.F.);
#1072=ADVANCED_FACE('',(#234),#1043,.F.);
#1073=ADVANCED_FACE('',(#235),#1044,.F.);
#1074=ADVANCED_FACE('',(#236),#1045,.T.);
#1075=ADVANCED_FACE('',(#237),#203,.T.);
#1076=ADVANCED_FACE('',(#238),#21,.T.);
#1077=ADVANCED_FACE('',(#239),#22,.T.);
#1078=ADVANCED_FACE('',(#240),#204,.T.);
#1079=ADVANCED_FACE('',(#241),#23,.T.);
#1080=ADVANCED_FACE('',(#242),#24,.T.);
#1081=ADVANCED_FACE('',(#243),#25,.T.);
#1082=ADVANCED_FACE('',(#244),#205,.T.);
#1083=ADVANCED_FACE('',(#245),#26,.T.);
#1084=ADVANCED_FACE('',(#246),#27,.T.);
#1085=ADVANCED_FACE('',(#247),#206,.T.);
#1086=ADVANCED_FACE('',(#248),#28,.T.);
#1087=ADVANCED_FACE('',(#249),#29,.T.);
#1088=ADVANCED_FACE('',(#250),#30,.T.);
#1089=ADVANCED_FACE('',(#251,#40),#1046,.F.);
#1090=ADVANCED_FACE('',(#252),#17,.F.);
#1091=ADVANCED_FACE('',(#253),#207,.T.);
#1092=ADVANCED_FACE('',(#254),#18,.F.);
#1093=ADVANCED_FACE('',(#255),#208,.T.);
#1094=ADVANCED_FACE('',(#256),#19,.F.);
#1095=ADVANCED_FACE('',(#257),#209,.T.);
#1096=ADVANCED_FACE('',(#258),#20,.F.);
#1097=ADVANCED_FACE('',(#259),#210,.T.);
#1098=ADVANCED_FACE('',(#260),#211,.T.);
#1099=ADVANCED_FACE('',(#261),#31,.T.);
#1100=ADVANCED_FACE('',(#262),#212,.T.);
#1101=ADVANCED_FACE('',(#263),#32,.T.);
#1102=ADVANCED_FACE('',(#264),#1047,.T.);
#1103=ADVANCED_FACE('',(#265),#1048,.T.);
#1104=ADVANCED_FACE('',(#266),#213,.T.);
#1105=ADVANCED_FACE('',(#267),#1049,.T.);
#1106=ADVANCED_FACE('',(#268),#214,.T.);
#1107=ADVANCED_FACE('',(#269),#215,.T.);
#1108=ADVANCED_FACE('',(#270),#33,.T.);
#1109=ADVANCED_FACE('',(#271),#216,.T.);
#1110=ADVANCED_FACE('',(#272),#34,.T.);
#1111=ADVANCED_FACE('',(#273),#217,.T.);
#1112=ADVANCED_FACE('',(#274),#218,.T.);
#1113=ADVANCED_FACE('',(#275),#1050,.F.);
#1114=ADVANCED_FACE('',(#276),#219,.F.);
#1115=ADVANCED_FACE('',(#277),#1051,.F.);
#1116=ADVANCED_FACE('',(#278),#220,.F.);
#1117=ADVANCED_FACE('',(#279),#221,.F.);
#1118=ADVANCED_FACE('',(#280),#1052,.F.);
#1119=ADVANCED_FACE('',(#281),#222,.F.);
#1120=ADVANCED_FACE('',(#282),#1053,.F.);
#1121=ADVANCED_FACE('',(#283),#1054,.T.);
#1122=ADVANCED_FACE('',(#284),#1055,.F.);
#1123=ADVANCED_FACE('',(#285),#1056,.F.);
#1124=ADVANCED_FACE('',(#286),#1057,.F.);
#1125=ADVANCED_FACE('',(#287),#1058,.F.);
#1126=ADVANCED_FACE('',(#288),#1059,.T.);
#1127=ADVANCED_FACE('',(#289),#1060,.T.);
#1128=CLOSED_SHELL('',(#1061,#1062,#1063,#1064,#1065,#1066,#1067,#1068,
#1069,#1070,#1071,#1072,#1073,#1074,#1075,#1076,#1077,#1078,#1079,#1080,
#1081,#1082,#1083,#1084,#1085,#1086,#1087,#1088,#1089,#1090,#1091,#1092,
#1093,#1094,#1095,#1096,#1097,#1098,#1099,#1100,#1101,#1102,#1103,#1104,
#1105,#1106,#1107,#1108,#1109,#1110,#1111,#1112,#1113,#1114,#1115,#1116,
#1117,#1118,#1119,#1120,#1121,#1122,#1123,#1124,#1125,#1126,#1127));
#1129=AXIS2_PLACEMENT_3D('',#1646,#1275,#1276);
#1130=AXIS2_PLACEMENT_3D('',#1647,#1277,#1278);
#1131=AXIS2_PLACEMENT_3D('',#1649,#1279,#1280);
#1132=AXIS2_PLACEMENT_3D('',#1650,#1281,#1282);
#1133=AXIS2_PLACEMENT_3D('',#1652,#1283,#1284);
#1134=AXIS2_PLACEMENT_3D('',#1653,#1285,#1286);
#1135=AXIS2_PLACEMENT_3D('',#1655,#1287,#1288);
#1136=AXIS2_PLACEMENT_3D('',#1656,#1289,#1290);
#1137=AXIS2_PLACEMENT_3D('',#1658,#1291,#1292);
#1138=AXIS2_PLACEMENT_3D('',#1659,#1293,#1294);
#1139=AXIS2_PLACEMENT_3D('',#1661,#1295,#1296);
#1140=AXIS2_PLACEMENT_3D('',#1663,#1298,#1299);
#1141=AXIS2_PLACEMENT_3D('',#1665,#1300,#1301);
#1142=AXIS2_PLACEMENT_3D('',#1667,#1303,#1304);
#1143=AXIS2_PLACEMENT_3D('',#1669,#1305,#1306);
#1144=AXIS2_PLACEMENT_3D('',#1671,#1308,#1309);
#1145=AXIS2_PLACEMENT_3D('',#1673,#1310,#1311);
#1146=AXIS2_PLACEMENT_3D('',#1675,#1313,#1314);
#1147=AXIS2_PLACEMENT_3D('',#1680,#1316,#1317);
#1148=AXIS2_PLACEMENT_3D('',#1684,#1319,#1320);
#1149=AXIS2_PLACEMENT_3D('',#1688,#1322,#1323);
#1150=AXIS2_PLACEMENT_3D('',#1691,#1325,#1326);
#1151=AXIS2_PLACEMENT_3D('',#1700,#1331,#1332);
#1152=AXIS2_PLACEMENT_3D('',#1709,#1337,#1338);
#1153=AXIS2_PLACEMENT_3D('',#1715,#1342,#1343);
#1154=AXIS2_PLACEMENT_3D('',#1723,#1348,#1349);
#1155=AXIS2_PLACEMENT_3D('',#1727,#1352,#1353);
#1156=AXIS2_PLACEMENT_3D('',#1737,#1359,#1360);
#1157=AXIS2_PLACEMENT_3D('',#1740,#1361,#1362);
#1158=AXIS2_PLACEMENT_3D('',#1744,#1364,#1365);
#1159=AXIS2_PLACEMENT_3D('',#1746,#1367,#1368);
#1160=AXIS2_PLACEMENT_3D('',#1749,#1369,#1370);
#1161=AXIS2_PLACEMENT_3D('',#1750,#1371,#1372);
#1162=AXIS2_PLACEMENT_3D('',#1751,#1373,#1374);
#1163=AXIS2_PLACEMENT_3D('',#1752,#1375,#1376);
#1164=AXIS2_PLACEMENT_3D('',#1755,#1377,#1378);
#1165=AXIS2_PLACEMENT_3D('',#1756,#1379,#1380);
#1166=AXIS2_PLACEMENT_3D('',#1757,#1381,#1382);
#1167=AXIS2_PLACEMENT_3D('',#1758,#1383,#1384);
#1168=AXIS2_PLACEMENT_3D('',#1761,#1385,#1386);
#1169=AXIS2_PLACEMENT_3D('',#1764,#1389,#1390);
#1170=AXIS2_PLACEMENT_3D('',#1767,#1391,#1392);
#1171=AXIS2_PLACEMENT_3D('',#1768,#1393,#1394);
#1172=AXIS2_PLACEMENT_3D('',#1769,#1395,#1396);
#1173=AXIS2_PLACEMENT_3D('',#1770,#1397,#1398);
#1174=AXIS2_PLACEMENT_3D('',#1773,#1399,#1400);
#1175=AXIS2_PLACEMENT_3D('',#1774,#1401,#1402);
#1176=AXIS2_PLACEMENT_3D('',#1775,#1403,#1404);
#1177=AXIS2_PLACEMENT_3D('',#1776,#1405,#1406);
#1178=AXIS2_PLACEMENT_3D('',#1778,#1407,#1408);
#1179=AXIS2_PLACEMENT_3D('',#1779,#1409,#1410);
#1180=AXIS2_PLACEMENT_3D('',#1780,#1411,#1412);
#1181=AXIS2_PLACEMENT_3D('',#1781,#1413,#1414);
#1182=AXIS2_PLACEMENT_3D('',#1784,#1415,#1416);
#1183=AXIS2_PLACEMENT_3D('',#1787,#1419,#1420);
#1184=AXIS2_PLACEMENT_3D('',#1790,#1421,#1422);
#1185=AXIS2_PLACEMENT_3D('',#1791,#1423,#1424);
#1186=AXIS2_PLACEMENT_3D('',#1792,#1425,#1426);
#1187=AXIS2_PLACEMENT_3D('',#1793,#1427,#1428);
#1188=AXIS2_PLACEMENT_3D('',#1796,#1429,#1430);
#1189=AXIS2_PLACEMENT_3D('',#1797,#1431,#1432);
#1190=AXIS2_PLACEMENT_3D('',#1798,#1433,#1434);
#1191=AXIS2_PLACEMENT_3D('',#1799,#1435,#1436);
#1192=AXIS2_PLACEMENT_3D('',#1802,#1437,#1438);
#1193=AXIS2_PLACEMENT_3D('',#1805,#1441,#1442);
#1194=AXIS2_PLACEMENT_3D('',#1808,#1443,#1444);
#1195=AXIS2_PLACEMENT_3D('',#1809,#1445,#1446);
#1196=AXIS2_PLACEMENT_3D('',#1810,#1447,#1448);
#1197=AXIS2_PLACEMENT_3D('',#1811,#1449,#1450);
#1198=AXIS2_PLACEMENT_3D('',#1813,#1451,#1452);
#1199=AXIS2_PLACEMENT_3D('',#1814,#1453,#1454);
#1200=AXIS2_PLACEMENT_3D('',#1815,#1455,#1456);
#1201=AXIS2_PLACEMENT_3D('',#1816,#1457,#1458);
#1202=AXIS2_PLACEMENT_3D('',#1817,#1459,#1460);
#1203=AXIS2_PLACEMENT_3D('',#1818,#1461,#1462);
#1204=AXIS2_PLACEMENT_3D('',#1819,#1463,#1464);
#1205=AXIS2_PLACEMENT_3D('',#1822,#1465,#1466);
#1206=AXIS2_PLACEMENT_3D('',#1826,#1468,#1469);
#1207=AXIS2_PLACEMENT_3D('',#1830,#1471,#1472);
#1208=AXIS2_PLACEMENT_3D('',#1834,#1474,#1475);
#1209=AXIS2_PLACEMENT_3D('',#1847,#1477,#1478);
#1210=AXIS2_PLACEMENT_3D('',#1849,#1479,#1480);
#1211=AXIS2_PLACEMENT_3D('',#1851,#1481,#1482);
#1212=AXIS2_PLACEMENT_3D('',#1852,#1483,#1484);
#1213=AXIS2_PLACEMENT_3D('',#1853,#1485,#1486);
#1214=AXIS2_PLACEMENT_3D('',#1856,#1487,#1488);
#1215=AXIS2_PLACEMENT_3D('',#1870,#1491,#1492);
#1216=AXIS2_PLACEMENT_3D('',#1871,#1493,#1494);
#1217=AXIS2_PLACEMENT_3D('',#1872,#1495,#1496);
#1218=AXIS2_PLACEMENT_3D('',#1873,#1497,#1498);
#1219=AXIS2_PLACEMENT_3D('',#1890,#1501,#1502);
#1220=AXIS2_PLACEMENT_3D('',#1916,#1505,#1506);
#1221=AXIS2_PLACEMENT_3D('',#1917,#1507,#1508);
#1222=AXIS2_PLACEMENT_3D('',#1918,#1509,#1510);
#1223=AXIS2_PLACEMENT_3D('',#1919,#1511,#1512);
#1224=AXIS2_PLACEMENT_3D('',#1922,#1513,#1514);
#1225=AXIS2_PLACEMENT_3D('',#1936,#1517,#1518);
#1226=AXIS2_PLACEMENT_3D('',#1937,#1519,#1520);
#1227=AXIS2_PLACEMENT_3D('',#1938,#1521,#1522);
#1228=AXIS2_PLACEMENT_3D('',#1939,#1523,#1524);
#1229=AXIS2_PLACEMENT_3D('',#1942,#1527,#1528);
#1230=AXIS2_PLACEMENT_3D('',#1945,#1531,#1532);
#1231=AXIS2_PLACEMENT_3D('',#1947,#1533,#1534);
#1232=AXIS2_PLACEMENT_3D('',#1949,#1535,#1536);
#1233=AXIS2_PLACEMENT_3D('',#1951,#1537,#1538);
#1234=AXIS2_PLACEMENT_3D('',#1952,#1539,#1540);
#1235=AXIS2_PLACEMENT_3D('',#1953,#1541,#1542);
#1236=AXIS2_PLACEMENT_3D('',#1955,#1543,#1544);
#1237=AXIS2_PLACEMENT_3D('',#1957,#1546,#1547);
#1238=AXIS2_PLACEMENT_3D('',#1959,#1548,#1549);
#1239=AXIS2_PLACEMENT_3D('',#1961,#1550,#1551);
#1240=AXIS2_PLACEMENT_3D('',#1962,#1552,#1553);
#1241=AXIS2_PLACEMENT_3D('',#1963,#1554,#1555);
#1242=AXIS2_PLACEMENT_3D('',#1967,#1557,#1558);
#1243=AXIS2_PLACEMENT_3D('',#1971,#1560,#1561);
#1244=AXIS2_PLACEMENT_3D('',#1974,#1564,#1565);
#1245=AXIS2_PLACEMENT_3D('',#1975,#1566,#1567);
#1246=AXIS2_PLACEMENT_3D('',#1978,#1570,#1571);
#1247=AXIS2_PLACEMENT_3D('',#1980,#1573,#1574);
#1248=AXIS2_PLACEMENT_3D('',#1982,#1576,#1577);
#1249=AXIS2_PLACEMENT_3D('',#1984,#1579,#1580);
#1250=AXIS2_PLACEMENT_3D('',#1986,#1581,#1582);
#1251=AXIS2_PLACEMENT_3D('',#1988,#1583,#1584);
#1252=AXIS2_PLACEMENT_3D('',#1989,#1585,#1586);
#1253=AXIS2_PLACEMENT_3D('',#1990,#1587,#1588);
#1254=AXIS2_PLACEMENT_3D('',#1992,#1589,#1590);
#1255=AXIS2_PLACEMENT_3D('',#1994,#1592,#1593);
#1256=AXIS2_PLACEMENT_3D('',#1996,#1594,#1595);
#1257=AXIS2_PLACEMENT_3D('',#1997,#1596,#1597);
#1258=AXIS2_PLACEMENT_3D('',#1998,#1598,#1599);
#1259=AXIS2_PLACEMENT_3D('',#2000,#1601,#1602);
#1260=AXIS2_PLACEMENT_3D('',#2002,#1604,#1605);
#1261=AXIS2_PLACEMENT_3D('',#2005,#1608,#1609);
#1262=AXIS2_PLACEMENT_3D('',#2007,#1611,#1612);
#1263=AXIS2_PLACEMENT_3D('',#2009,#1614,#1615);
#1264=AXIS2_PLACEMENT_3D('',#2011,#1617,#1618);
#1265=AXIS2_PLACEMENT_3D('',#2014,#1621,#1622);
#1266=AXIS2_PLACEMENT_3D('',#2016,#1624,#1625);
#1267=AXIS2_PLACEMENT_3D('',#2017,#1626,#1627);
#1268=AXIS2_PLACEMENT_3D('',#2020,#1630,#1631);
#1269=AXIS2_PLACEMENT_3D('',#2021,#1632,#1633);
#1270=AXIS2_PLACEMENT_3D('',#2023,#1635,#1636);
#1271=AXIS2_PLACEMENT_3D('',#2024,#1637,#1638);
#1272=AXIS2_PLACEMENT_3D('',#2026,#1640,#1641);
#1273=AXIS2_PLACEMENT_3D('',#2027,#1642,#1643);
#1274=AXIS2_PLACEMENT_3D('',#2028,#1644,#1645);
#1275=DIRECTION('axis',(0.,0.,1.));
#1276=DIRECTION('refdir',(1.,0.,0.));
#1277=DIRECTION('center_axis',(0.,1.,0.));
#1278=DIRECTION('ref_axis',(0.,0.,1.));
#1279=DIRECTION('center_axis',(0.,-1.,0.));
#1280=DIRECTION('ref_axis',(-1.,0.,0.));
#1281=DIRECTION('center_axis',(0.,1.,0.));
#1282=DIRECTION('ref_axis',(0.,0.,1.));
#1283=DIRECTION('center_axis',(0.,-1.,0.));
#1284=DIRECTION('ref_axis',(-1.,0.,0.));
#1285=DIRECTION('center_axis',(0.,1.,0.));
#1286=DIRECTION('ref_axis',(0.,0.,1.));
#1287=DIRECTION('center_axis',(0.,-1.,0.));
#1288=DIRECTION('ref_axis',(-1.,0.,0.));
#1289=DIRECTION('center_axis',(0.,1.,0.));
#1290=DIRECTION('ref_axis',(0.,0.,1.));
#1291=DIRECTION('center_axis',(0.,-1.,0.));
#1292=DIRECTION('ref_axis',(-1.,0.,0.));
#1293=DIRECTION('center_axis',(0.,1.,0.));
#1294=DIRECTION('ref_axis',(-1.,0.,0.));
#1295=DIRECTION('center_axis',(0.,-1.,0.));
#1296=DIRECTION('ref_axis',(-1.,0.,0.));
#1297=DIRECTION('',(0.,-1.,0.));
#1298=DIRECTION('center_axis',(0.,1.,0.));
#1299=DIRECTION('ref_axis',(-1.,0.,0.));
#1300=DIRECTION('center_axis',(0.,-1.,0.));
#1301=DIRECTION('ref_axis',(-1.,0.,0.));
#1302=DIRECTION('',(0.,-1.,0.));
#1303=DIRECTION('center_axis',(0.,1.,0.));
#1304=DIRECTION('ref_axis',(-1.,0.,0.));
#1305=DIRECTION('center_axis',(0.,-1.,0.));
#1306=DIRECTION('ref_axis',(-1.,0.,0.));
#1307=DIRECTION('',(0.,-1.,0.));
#1308=DIRECTION('center_axis',(0.,1.,0.));
#1309=DIRECTION('ref_axis',(-1.,0.,0.));
#1310=DIRECTION('center_axis',(0.,-1.,0.));
#1311=DIRECTION('ref_axis',(-1.,0.,0.));
#1312=DIRECTION('',(0.,-1.,0.));
#1313=DIRECTION('center_axis',(0.,1.,0.));
#1314=DIRECTION('ref_axis',(-1.,0.,0.));
#1315=DIRECTION('',(1.,0.,0.));
#1316=DIRECTION('center_axis',(0.,1.,0.));
#1317=DIRECTION('ref_axis',(4.44089209850058E-15,0.,1.));
#1318=DIRECTION('',(-9.76020241428709E-17,0.,-1.));
#1319=DIRECTION('center_axis',(0.,1.,0.));
#1320=DIRECTION('ref_axis',(1.,0.,-7.77156117237613E-15));
#1321=DIRECTION('',(-1.,0.,3.08035909390477E-17));
#1322=DIRECTION('center_axis',(0.,1.,0.));
#1323=DIRECTION('ref_axis',(0.,0.,-1.));
#1324=DIRECTION('',(1.22002530178589E-17,0.,1.));
#1325=DIRECTION('center_axis',(0.,1.,0.));
#1326=DIRECTION('ref_axis',(-1.,0.,8.88178419700126E-15));
#1327=DIRECTION('',(1.,0.,0.));
#1328=DIRECTION('',(0.,0.,1.));
#1329=DIRECTION('',(-1.,0.,0.));
#1330=DIRECTION('',(3.34404525489505E-17,0.,-1.));
#1331=DIRECTION('center_axis',(1.,0.,0.));
#1332=DIRECTION('ref_axis',(0.,0.,-1.));
#1333=DIRECTION('',(0.,0.,1.));
#1334=DIRECTION('',(0.,1.,0.));
#1335=DIRECTION('',(0.,0.,1.));
#1336=DIRECTION('',(0.,-1.,0.));
#1337=DIRECTION('center_axis',(0.,0.,-1.));
#1338=DIRECTION('ref_axis',(-1.,0.,0.));
#1339=DIRECTION('',(-1.,0.,0.));
#1340=DIRECTION('',(0.,-1.,0.));
#1341=DIRECTION('',(1.,0.,0.));
#1342=DIRECTION('center_axis',(0.,-1.,0.));
#1343=DIRECTION('ref_axis',(0.,0.,-1.));
#1344=DIRECTION('',(1.,0.,0.));
#1345=DIRECTION('',(0.,0.,1.));
#1346=DIRECTION('',(0.,0.,1.));
#1347=DIRECTION('',(0.,0.,1.));
#1348=DIRECTION('center_axis',(0.,0.,1.));
#1349=DIRECTION('ref_axis',(1.,0.,0.));
#1350=DIRECTION('',(-1.,0.,0.));
#1351=DIRECTION('',(0.,1.,0.));
#1352=DIRECTION('center_axis',(0.,1.,0.));
#1353=DIRECTION('ref_axis',(0.,0.,1.));
#1354=DIRECTION('',(0.,0.,-1.));
#1355=DIRECTION('',(1.,0.,0.));
#1356=DIRECTION('',(0.,0.,-1.));
#1357=DIRECTION('',(-1.,0.,0.));
#1358=DIRECTION('',(0.,0.,1.));
#1359=DIRECTION('center_axis',(0.,-1.,0.));
#1360=DIRECTION('ref_axis',(0.0499999999999901,0.,-0.998749217771909));
#1361=DIRECTION('center_axis',(0.,-1.,0.));
#1362=DIRECTION('ref_axis',(0.0499999999999901,0.,-0.998749217771909));
#1363=DIRECTION('',(0.,-1.,0.));
#1364=DIRECTION('center_axis',(1.11022302462516E-15,1.,-1.05603274037786E-15));
#1365=DIRECTION('ref_axis',(1.,-1.11022302462516E-15,0.));
#1366=DIRECTION('',(0.,-1.,0.));
#1367=DIRECTION('center_axis',(1.,0.,0.));
#1368=DIRECTION('ref_axis',(0.,0.,-1.));
#1369=DIRECTION('center_axis',(0.,0.,1.));
#1370=DIRECTION('ref_axis',(0.04999999999999,-0.99874921777191,0.));
#1371=DIRECTION('center_axis',(1.,0.,0.));
#1372=DIRECTION('ref_axis',(0.,0.,-1.));
#1373=DIRECTION('center_axis',(-1.,0.,0.));
#1374=DIRECTION('ref_axis',(0.,0.707106781186548,0.707106781186547));
#1375=DIRECTION('center_axis',(1.,0.,0.));
#1376=DIRECTION('ref_axis',(0.,-5.07711964715059E-16,-1.));
#1377=DIRECTION('center_axis',(0.,0.968793675675726,0.247868541712571));
#1378=DIRECTION('ref_axis',(1.,0.,0.));
#1379=DIRECTION('center_axis',(-1.,0.,0.));
#1380=DIRECTION('ref_axis',(0.,-0.707106781186548,0.707106781186547));
#1381=DIRECTION('center_axis',(1.,0.,0.));
#1382=DIRECTION('ref_axis',(0.,-4.4431150462355E-16,-1.));
#1383=DIRECTION('center_axis',(0.,0.,1.));
#1384=DIRECTION('ref_axis',(0.0499999999999901,-0.998749217771909,0.));
#1385=DIRECTION('center_axis',(0.,0.,1.));
#1386=DIRECTION('ref_axis',(0.0499999999999901,-0.998749217771909,0.));
#1387=DIRECTION('',(0.,0.,1.));
#1388=DIRECTION('',(0.,0.,1.));
#1389=DIRECTION('center_axis',(1.,0.,0.));
#1390=DIRECTION('ref_axis',(0.,0.247868541712571,-0.968793675675726));
#1391=DIRECTION('center_axis',(0.,0.936476304648585,0.350730852409267));
#1392=DIRECTION('ref_axis',(1.,0.,0.));
#1393=DIRECTION('center_axis',(1.,0.,0.));
#1394=DIRECTION('ref_axis',(0.,-0.707106781186548,0.707106781186547));
#1395=DIRECTION('center_axis',(1.,0.,0.));
#1396=DIRECTION('ref_axis',(0.,0.247868541712571,-0.968793675675726));
#1397=DIRECTION('center_axis',(1.,0.,0.));
#1398=DIRECTION('ref_axis',(0.,-1.,0.));
#1399=DIRECTION('center_axis',(0.,1.,0.));
#1400=DIRECTION('ref_axis',(0.0499999999999901,0.,0.998749217771909));
#1401=DIRECTION('center_axis',(1.,0.,0.));
#1402=DIRECTION('ref_axis',(0.,-1.,0.));
#1403=DIRECTION('center_axis',(-1.,0.,0.));
#1404=DIRECTION('ref_axis',(0.,0.707106781186548,-0.707106781186547));
#1405=DIRECTION('center_axis',(1.,0.,0.));
#1406=DIRECTION('ref_axis',(0.,0.350730852409267,-0.936476304648585));
#1407=DIRECTION('center_axis',(0.,0.192984145479364,0.981201875045905));
#1408=DIRECTION('ref_axis',(1.,0.,0.));
#1409=DIRECTION('center_axis',(1.,0.,0.));
#1410=DIRECTION('ref_axis',(0.,-0.707106781186548,0.707106781186547));
#1411=DIRECTION('center_axis',(1.,0.,0.));
#1412=DIRECTION('ref_axis',(0.,0.350730852409266,-0.936476304648585));
#1413=DIRECTION('center_axis',(0.,1.,0.));
#1414=DIRECTION('ref_axis',(0.0499999999999901,0.,0.998749217771909));
#1415=DIRECTION('center_axis',(2.22044604925032E-15,1.,2.11206548075571E-15));
#1416=DIRECTION('ref_axis',(0.0499999999999901,-2.22044604925031E-15,0.998749217771909));
#1417=DIRECTION('',(0.,1.,0.));
#1418=DIRECTION('',(0.,1.,0.));
#1419=DIRECTION('center_axis',(1.,0.,0.));
#1420=DIRECTION('ref_axis',(0.,0.981201875045905,-0.192984145479364));
#1421=DIRECTION('center_axis',(3.08534700822496E-31,-1.11161341092405E-15,
1.));
#1422=DIRECTION('ref_axis',(1.,2.7755575615629E-16,0.));
#1423=DIRECTION('center_axis',(1.,0.,0.));
#1424=DIRECTION('ref_axis',(0.,-0.707106781186548,0.707106781186547));
#1425=DIRECTION('center_axis',(1.,0.,0.));
#1426=DIRECTION('ref_axis',(0.,0.981201875045905,-0.192984145479364));
#1427=DIRECTION('center_axis',(1.,0.,0.));
#1428=DIRECTION('ref_axis',(0.,-1.01542392943012E-15,1.));
#1429=DIRECTION('center_axis',(0.,0.968793675675726,-0.247868541712571));
#1430=DIRECTION('ref_axis',(0.0499999999999901,0.247558512145694,0.967581925763504));
#1431=DIRECTION('center_axis',(1.,0.,0.));
#1432=DIRECTION('ref_axis',(0.,-8.88623009247101E-16,1.));
#1433=DIRECTION('center_axis',(-1.,0.,0.));
#1434=DIRECTION('ref_axis',(0.,-0.707106781186548,-0.707106781186548));
#1435=DIRECTION('center_axis',(0.,0.,-1.));
#1436=DIRECTION('ref_axis',(0.0499999999999901,0.99874921777191,0.));
#1437=DIRECTION('center_axis',(0.,0.,1.));
#1438=DIRECTION('ref_axis',(1.,0.,0.));
#1439=DIRECTION('',(0.,0.,-1.));
#1440=DIRECTION('',(0.,0.,-1.));
#1441=DIRECTION('center_axis',(1.,0.,0.));
#1442=DIRECTION('ref_axis',(0.,0.247868541712571,0.968793675675726));
#1443=DIRECTION('center_axis',(0.,0.756700924605445,-0.653761203117213));
#1444=DIRECTION('ref_axis',(0.0499999999999901,0.652943490222939,0.755754456536968));
#1445=DIRECTION('center_axis',(1.,0.,0.));
#1446=DIRECTION('ref_axis',(0.,0.247868541712571,0.968793675675726));
#1447=DIRECTION('center_axis',(1.,0.,0.));
#1448=DIRECTION('ref_axis',(0.,-0.707106781186548,-0.707106781186548));
#1449=DIRECTION('center_axis',(1.,0.,0.));
#1450=DIRECTION('ref_axis',(0.,1.,0.));
#1451=DIRECTION('center_axis',(5.35638604247008E-17,-0.192984145479365,
0.981201875045905));
#1452=DIRECTION('ref_axis',(1.,2.7755575615629E-16,0.));
#1453=DIRECTION('center_axis',(1.,0.,0.));
#1454=DIRECTION('ref_axis',(0.,-0.707106781186548,-0.707106781186548));
#1455=DIRECTION('center_axis',(1.,0.,0.));
#1456=DIRECTION('ref_axis',(0.,1.,0.));
#1457=DIRECTION('center_axis',(1.,0.,0.));
#1458=DIRECTION('ref_axis',(0.,0.653761203117213,0.756700924605444));
#1459=DIRECTION('center_axis',(1.,0.,0.));
#1460=DIRECTION('ref_axis',(0.,0.653761203117213,0.756700924605444));
#1461=DIRECTION('center_axis',(1.,0.,0.));
#1462=DIRECTION('ref_axis',(0.,-0.707106781186548,-0.707106781186548));
#1463=DIRECTION('center_axis',(-1.,0.,0.));
#1464=DIRECTION('ref_axis',(0.,0.,1.));
#1465=DIRECTION('center_axis',(-1.,0.,0.));
#1466=DIRECTION('ref_axis',(0.,0.707106781186547,0.707106781186548));
#1467=DIRECTION('',(0.,1.,0.));
#1468=DIRECTION('center_axis',(-1.,0.,0.));
#1469=DIRECTION('ref_axis',(0.,-0.707106781186547,0.707106781186548));
#1470=DIRECTION('',(0.,0.,1.));
#1471=DIRECTION('center_axis',(-1.,0.,0.));
#1472=DIRECTION('ref_axis',(0.,-0.707106781186547,-0.707106781186548));
#1473=DIRECTION('',(0.,-1.,0.));
#1474=DIRECTION('center_axis',(-1.,0.,0.));
#1475=DIRECTION('ref_axis',(0.,0.707106781186548,-0.707106781186547));
#1476=DIRECTION('',(0.,0.,-1.));
#1477=DIRECTION('center_axis',(0.,0.,1.));
#1478=DIRECTION('ref_axis',(-1.,0.,0.));
#1479=DIRECTION('center_axis',(0.,1.,0.));
#1480=DIRECTION('ref_axis',(-0.707106781186545,0.,0.70710678118655));
#1481=DIRECTION('center_axis',(-1.,0.,1.38777878078145E-16));
#1482=DIRECTION('ref_axis',(0.,-1.,0.));
#1483=DIRECTION('center_axis',(0.,-1.,0.));
#1484=DIRECTION('ref_axis',(-0.707106781186545,0.,0.70710678118655));
#1485=DIRECTION('center_axis',(-1.,0.,0.));
#1486=DIRECTION('ref_axis',(0.,-0.707106781186549,0.707106781186546));
#1487=DIRECTION('center_axis',(-1.,0.,0.));
#1488=DIRECTION('ref_axis',(0.,-1.,0.));
#1489=DIRECTION('',(-1.,0.,0.));
#1490=DIRECTION('',(1.,0.,0.));
#1491=DIRECTION('center_axis',(0.,0.,1.));
#1492=DIRECTION('ref_axis',(0.,-1.,0.));
#1493=DIRECTION('center_axis',(0.,-1.,0.));
#1494=DIRECTION('ref_axis',(0.707106781186545,0.,0.70710678118655));
#1495=DIRECTION('center_axis',(0.,1.,0.));
#1496=DIRECTION('ref_axis',(0.707106781186545,0.,0.70710678118655));
#1497=DIRECTION('center_axis',(0.,0.,1.));
#1498=DIRECTION('ref_axis',(0.707106781186546,-0.707106781186549,0.));
#1499=DIRECTION('',(0.,0.,1.));
#1500=DIRECTION('',(0.,0.,-1.));
#1501=DIRECTION('center_axis',(-4.44089209850064E-15,0.,1.));
#1502=DIRECTION('ref_axis',(0.,-1.,0.));
#1503=DIRECTION('',(0.,0.,1.));
#1504=DIRECTION('',(0.,0.,1.));
#1505=DIRECTION('center_axis',(1.,0.,0.));
#1506=DIRECTION('ref_axis',(0.,-1.,0.));
#1507=DIRECTION('center_axis',(0.,-1.,0.));
#1508=DIRECTION('ref_axis',(0.707106781186546,0.,-0.707106781186549));
#1509=DIRECTION('center_axis',(0.,1.,0.));
#1510=DIRECTION('ref_axis',(0.707106781186546,0.,-0.707106781186549));
#1511=DIRECTION('center_axis',(1.,0.,0.));
#1512=DIRECTION('ref_axis',(0.,-0.707106781186547,-0.707106781186548));
#1513=DIRECTION('center_axis',(1.,0.,0.));
#1514=DIRECTION('ref_axis',(0.,-1.,0.));
#1515=DIRECTION('',(1.,0.,0.));
#1516=DIRECTION('',(-1.,0.,0.));
#1517=DIRECTION('center_axis',(0.,0.,-1.));
#1518=DIRECTION('ref_axis',(0.,-1.,0.));
#1519=DIRECTION('center_axis',(0.,-1.,0.));
#1520=DIRECTION('ref_axis',(-0.707106781186548,0.,-0.707106781186547));
#1521=DIRECTION('center_axis',(0.,1.,0.));
#1522=DIRECTION('ref_axis',(-0.707106781186548,0.,-0.707106781186547));
#1523=DIRECTION('center_axis',(0.,0.,-1.));
#1524=DIRECTION('ref_axis',(-0.707106781186547,-0.707106781186548,0.));
#1525=DIRECTION('',(0.,0.,1.));
#1526=DIRECTION('',(0.,0.,-1.));
#1527=DIRECTION('center_axis',(0.,1.,0.));
#1528=DIRECTION('ref_axis',(0.707106781186551,0.,0.707106781186544));
#1529=DIRECTION('',(0.,1.,0.));
#1530=DIRECTION('',(0.,-1.,0.));
#1531=DIRECTION('center_axis',(1.,0.,0.));
#1532=DIRECTION('ref_axis',(0.,0.,-1.));
#1533=DIRECTION('center_axis',(0.,0.,1.));
#1534=DIRECTION('ref_axis',(1.,0.,0.));
#1535=DIRECTION('center_axis',(-1.,0.,0.));
#1536=DIRECTION('ref_axis',(0.,-0.707106781186548,0.707106781186548));
#1537=DIRECTION('center_axis',(0.,1.,0.));
#1538=DIRECTION('ref_axis',(1.,0.,0.));
#1539=DIRECTION('center_axis',(1.,0.,0.));
#1540=DIRECTION('ref_axis',(0.,-0.707106781186547,0.707106781186547));
#1541=DIRECTION('center_axis',(0.,0.,1.));
#1542=DIRECTION('ref_axis',(0.707106781186546,0.707106781186549,0.));
#1543=DIRECTION('center_axis',(0.,3.33066907387547E-15,1.));
#1544=DIRECTION('ref_axis',(1.,0.,0.));
#1545=DIRECTION('',(0.,0.,1.));
#1546=DIRECTION('center_axis',(1.,0.,0.));
#1547=DIRECTION('ref_axis',(0.,0.,-1.));
#1548=DIRECTION('center_axis',(1.,0.,0.));
#1549=DIRECTION('ref_axis',(0.,-0.707106781186548,-0.707106781186547));
#1550=DIRECTION('center_axis',(0.,-1.,0.));
#1551=DIRECTION('ref_axis',(1.,0.,0.));
#1552=DIRECTION('center_axis',(-1.,0.,0.));
#1553=DIRECTION('ref_axis',(0.,-0.707106781186548,-0.707106781186547));
#1554=DIRECTION('center_axis',(1.,0.,0.));
#1555=DIRECTION('ref_axis',(0.,0.,-1.));
#1556=DIRECTION('',(0.,-1.,0.));
#1557=DIRECTION('center_axis',(1.,0.,0.));
#1558=DIRECTION('ref_axis',(0.,0.707106781186547,0.707106781186548));
#1559=DIRECTION('',(0.,0.,1.));
#1560=DIRECTION('center_axis',(1.,0.,0.));
#1561=DIRECTION('ref_axis',(0.,0.707106781186548,-0.707106781186547));
#1562=DIRECTION('',(0.,1.,0.));
#1563=DIRECTION('',(0.,-1.,0.));
#1564=DIRECTION('center_axis',(0.,-1.,0.));
#1565=DIRECTION('ref_axis',(0.,0.,-1.));
#1566=DIRECTION('center_axis',(0.,1.,0.));
#1567=DIRECTION('ref_axis',(-0.707106781186549,0.,0.707106781186546));
#1568=DIRECTION('',(0.,1.,0.));
#1569=DIRECTION('',(0.,-1.,0.));
#1570=DIRECTION('center_axis',(-1.,0.,0.));
#1571=DIRECTION('ref_axis',(0.,0.,1.));
#1572=DIRECTION('',(0.,1.,0.));
#1573=DIRECTION('center_axis',(0.,-1.,0.));
#1574=DIRECTION('ref_axis',(-0.707106781186548,0.,-0.707106781186547));
#1575=DIRECTION('',(0.,-1.,0.));
#1576=DIRECTION('center_axis',(0.,1.,0.));
#1577=DIRECTION('ref_axis',(0.707106781186547,0.,-0.707106781186548));
#1578=DIRECTION('',(0.,1.,0.));
#1579=DIRECTION('center_axis',(1.,0.,0.));
#1580=DIRECTION('ref_axis',(0.,0.,-1.));
#1581=DIRECTION('center_axis',(0.,1.,1.11022302462516E-15));
#1582=DIRECTION('ref_axis',(0.,-1.11022302462516E-15,1.));
#1583=DIRECTION('center_axis',(0.,-5.55111512312579E-16,-1.));
#1584=DIRECTION('ref_axis',(1.,0.,0.));
#1585=DIRECTION('center_axis',(-1.,0.,0.));
#1586=DIRECTION('ref_axis',(0.,0.707106781186548,-0.707106781186547));
#1587=DIRECTION('center_axis',(0.,0.,-1.));
#1588=DIRECTION('ref_axis',(0.707106781186546,-0.707106781186549,0.));
#1589=DIRECTION('center_axis',(0.,-1.11022302462516E-15,-1.));
#1590=DIRECTION('ref_axis',(1.,0.,0.));
#1591=DIRECTION('',(0.,0.,-1.));
#1592=DIRECTION('center_axis',(1.,0.,0.));
#1593=DIRECTION('ref_axis',(0.,0.,-1.));
#1594=DIRECTION('center_axis',(0.,1.,0.));
#1595=DIRECTION('ref_axis',(1.,0.,0.));
#1596=DIRECTION('center_axis',(-1.,0.,0.));
#1597=DIRECTION('ref_axis',(0.,0.707106781186547,0.707106781186548));
#1598=DIRECTION('center_axis',(0.,1.,0.));
#1599=DIRECTION('ref_axis',(0.707106781186548,0.,-0.707106781186548));
#1600=DIRECTION('',(0.,1.,0.));
#1601=DIRECTION('center_axis',(0.,-1.,0.));
#1602=DIRECTION('ref_axis',(0.707106781186548,0.,0.707106781186548));
#1603=DIRECTION('',(0.,-1.,0.));
#1604=DIRECTION('center_axis',(0.,-1.,0.));
#1605=DIRECTION('ref_axis',(0.,0.,1.));
#1606=DIRECTION('',(-1.,0.,0.));
#1607=DIRECTION('',(-1.,0.,0.));
#1608=DIRECTION('center_axis',(-1.,0.,0.));
#1609=DIRECTION('ref_axis',(0.,-0.707106781186547,-0.707106781186548));
#1610=DIRECTION('',(-1.,0.,0.));
#1611=DIRECTION('center_axis',(0.,0.,-1.));
#1612=DIRECTION('ref_axis',(0.,-1.,0.));
#1613=DIRECTION('',(-1.,0.,0.));
#1614=DIRECTION('center_axis',(-1.,0.,0.));
#1615=DIRECTION('ref_axis',(0.,0.707106781186548,-0.707106781186547));
#1616=DIRECTION('',(-1.,0.,0.));
#1617=DIRECTION('center_axis',(-1.,0.,0.));
#1618=DIRECTION('ref_axis',(0.,0.707106781186547,0.707106781186548));
#1619=DIRECTION('',(-1.,0.,0.));
#1620=DIRECTION('',(-1.,0.,0.));
#1621=DIRECTION('center_axis',(0.,0.,1.));
#1622=DIRECTION('ref_axis',(0.,1.,0.));
#1623=DIRECTION('',(-1.,0.,0.));
#1624=DIRECTION('center_axis',(-1.,0.,0.));
#1625=DIRECTION('ref_axis',(0.,-0.707106781186547,0.707106781186548));
#1626=DIRECTION('center_axis',(1.,0.,0.));
#1627=DIRECTION('ref_axis',(0.,0.,1.));
#1628=DIRECTION('',(0.,-1.,0.));
#1629=DIRECTION('',(0.,-1.,0.));
#1630=DIRECTION('center_axis',(1.,0.,0.));
#1631=DIRECTION('ref_axis',(0.,0.,-1.));
#1632=DIRECTION('center_axis',(0.,0.,1.));
#1633=DIRECTION('ref_axis',(-1.,0.,0.));
#1634=DIRECTION('',(0.,1.,0.));
#1635=DIRECTION('center_axis',(0.,1.,0.));
#1636=DIRECTION('ref_axis',(0.,0.,-1.));
#1637=DIRECTION('center_axis',(0.,0.,-1.));
#1638=DIRECTION('ref_axis',(1.,-1.73244963582978E-16,0.));
#1639=DIRECTION('',(0.,-1.,0.));
#1640=DIRECTION('center_axis',(-1.,0.,0.));
#1641=DIRECTION('ref_axis',(0.,1.33761810195802E-16,-1.));
#1642=DIRECTION('center_axis',(0.,0.,-1.));
#1643=DIRECTION('ref_axis',(-1.,0.,0.));
#1644=DIRECTION('center_axis',(0.,0.,1.));
#1645=DIRECTION('ref_axis',(1.,0.,0.));
#1646=CARTESIAN_POINT('',(0.,0.,0.));
#1647=CARTESIAN_POINT('Origin',(35.292,3.,30.75));
#1648=CARTESIAN_POINT('',(3.35000001490116,3.,74.5000011101365));
#1649=CARTESIAN_POINT('Origin',(1.00000001490116,3.,74.5000011101365));
#1650=CARTESIAN_POINT('Origin',(35.292,3.,30.75));
#1651=CARTESIAN_POINT('',(71.8500010356307,3.,74.5000011101365));
#1652=CARTESIAN_POINT('Origin',(69.5000010356307,3.,74.5000011101365));
#1653=CARTESIAN_POINT('Origin',(35.292,3.,30.75));
#1654=CARTESIAN_POINT('',(71.8500010356307,3.,-13.0000001937151));
#1655=CARTESIAN_POINT('Origin',(69.5000010356307,3.,-13.0000001937151));
#1656=CARTESIAN_POINT('Origin',(35.292,3.,30.75));
#1657=CARTESIAN_POINT('',(3.35000001490116,3.,-13.0000001937151));
#1658=CARTESIAN_POINT('Origin',(1.00000001490116,3.,-13.0000001937151));
#1659=CARTESIAN_POINT('Origin',(69.5000010356307,14.,-13.0000001937151));
#1660=CARTESIAN_POINT('',(71.8500010356307,16.,-13.0000001937151));
#1661=CARTESIAN_POINT('Origin',(69.5000010356307,16.,-13.0000001937151));
#1662=CARTESIAN_POINT('',(71.8500010356307,14.,-13.0000001937151));
#1663=CARTESIAN_POINT('Origin',(1.00000001490116,14.,74.5000011101365));
#1664=CARTESIAN_POINT('',(3.35000001490116,16.,74.5000011101365));
#1665=CARTESIAN_POINT('Origin',(1.00000001490116,16.,74.5000011101365));
#1666=CARTESIAN_POINT('',(3.35000001490116,14.,74.5000011101365));
#1667=CARTESIAN_POINT('Origin',(69.5000010356307,14.,74.5000011101365));
#1668=CARTESIAN_POINT('',(71.8500010356307,16.,74.5000011101365));
#1669=CARTESIAN_POINT('Origin',(69.5000010356307,16.,74.5000011101365));
#1670=CARTESIAN_POINT('',(71.8500010356307,14.,74.5000011101365));
#1671=CARTESIAN_POINT('Origin',(1.00000001490116,14.,-13.0000001937151));
#1672=CARTESIAN_POINT('',(3.35000001490116,16.,-13.0000001937151));
#1673=CARTESIAN_POINT('Origin',(1.00000001490116,16.,-13.0000001937151));
#1674=CARTESIAN_POINT('',(3.35000001490116,14.,-13.0000001937151));
#1675=CARTESIAN_POINT('Origin',(35.292,16.,30.75));
#1676=CARTESIAN_POINT('',(-0.75,16.,78.25));
#1677=CARTESIAN_POINT('',(71.334,16.,78.25));
#1678=CARTESIAN_POINT('',(-0.75,16.,78.25));
#1679=CARTESIAN_POINT('',(73.334,16.,76.25));
#1680=CARTESIAN_POINT('Origin',(71.334,16.,76.25));
#1681=CARTESIAN_POINT('',(73.334,16.,-14.75));
#1682=CARTESIAN_POINT('',(73.334,16.,76.25));
#1683=CARTESIAN_POINT('',(71.334,16.,-16.75));
#1684=CARTESIAN_POINT('Origin',(71.334,16.,-14.75));
#1685=CARTESIAN_POINT('',(-0.750000000000002,16.,-16.75));
#1686=CARTESIAN_POINT('',(71.334,16.,-16.75));
#1687=CARTESIAN_POINT('',(-2.75,16.,-14.75));
#1688=CARTESIAN_POINT('Origin',(-0.750000000000002,16.,-14.75));
#1689=CARTESIAN_POINT('',(-2.75,16.,76.25));
#1690=CARTESIAN_POINT('',(-2.75,16.,-14.75));
#1691=CARTESIAN_POINT('Origin',(-0.750000000000003,16.,76.25));
#1692=CARTESIAN_POINT('',(3.05,16.,-10.65));
#1693=CARTESIAN_POINT('',(67.134,16.,-10.65));
#1694=CARTESIAN_POINT('',(3.05,16.,-10.65));
#1695=CARTESIAN_POINT('',(67.134,16.,72.35));
#1696=CARTESIAN_POINT('',(67.134,16.,-10.65));
#1697=CARTESIAN_POINT('',(3.05,16.,72.35));
#1698=CARTESIAN_POINT('',(67.134,16.,72.35));
#1699=CARTESIAN_POINT('',(3.05,16.,72.35));
#1700=CARTESIAN_POINT('Origin',(58.6999986790121,2.5,7.50000011175871));
#1701=CARTESIAN_POINT('',(58.6999986790121,4.5,-3.19999994412065));
#1702=CARTESIAN_POINT('',(58.6999986790121,4.5,7.80000011175871));
#1703=CARTESIAN_POINT('',(58.6999986790121,4.5,19.1750000558794));
#1704=CARTESIAN_POINT('',(58.6999986790121,3.4,7.80000011175871));
#1705=CARTESIAN_POINT('',(58.6999986790121,2.5,7.80000011175871));
#1706=CARTESIAN_POINT('',(58.6999986790121,3.4,-3.19999994412065));
#1707=CARTESIAN_POINT('',(58.6999986790121,3.4,5.00000009778887));
#1708=CARTESIAN_POINT('',(58.6999986790121,2.5,-3.19999994412065));
#1709=CARTESIAN_POINT('Origin',(59.0999986790121,2.5,-3.19999994412065));
#1710=CARTESIAN_POINT('',(67.134,3.4,-3.19999994412065));
#1711=CARTESIAN_POINT('',(60.9499992569908,3.4,-3.19999994412065));
#1712=CARTESIAN_POINT('',(67.134,4.5,-3.19999994412065));
#1713=CARTESIAN_POINT('',(67.134,4.5,-3.19999994412065));
#1714=CARTESIAN_POINT('',(47.095999339506,4.5,-3.19999994412064));
#1715=CARTESIAN_POINT('Origin',(62.7999998349696,3.4,2.50000008381903));
#1716=CARTESIAN_POINT('',(67.134,3.4,7.80000011175871));
#1717=CARTESIAN_POINT('',(66.5000009909272,3.4,7.80000011175871));
#1718=CARTESIAN_POINT('',(67.134,3.4,6.38476187300488));
#1719=CARTESIAN_POINT('',(67.134,3.4,7.50000011175871));
#1720=CARTESIAN_POINT('',(67.134,3.4,-1.85442477543153));
#1721=CARTESIAN_POINT('',(67.134,3.4,37.4250000419095));
#1722=CARTESIAN_POINT('',(67.134,3.4,7.54847616829942));
#1723=CARTESIAN_POINT('Origin',(66.5000009909272,2.5,7.80000011175871));
#1724=CARTESIAN_POINT('',(67.134,4.5,7.80000011175871));
#1725=CARTESIAN_POINT('',(50.7960004954636,4.5,7.80000011175871));
#1726=CARTESIAN_POINT('',(67.134,3.5,7.80000011175871));
#1727=CARTESIAN_POINT('Origin',(35.092,4.5,30.85));
#1728=CARTESIAN_POINT('',(67.134,4.49999999999999,-10.65));
#1729=CARTESIAN_POINT('',(67.134,4.49999999999999,72.35));
#1730=CARTESIAN_POINT('',(3.05,4.5,-10.65));
#1731=CARTESIAN_POINT('',(19.071,4.5,-10.65));
#1732=CARTESIAN_POINT('',(3.05,4.49999999999999,72.35));
#1733=CARTESIAN_POINT('',(3.05,4.5,51.6));
#1734=CARTESIAN_POINT('',(67.134,4.49999999999999,72.35));
#1735=CARTESIAN_POINT('',(51.113,4.5,72.35));
#1736=CARTESIAN_POINT('',(67.134,4.5,10.1));
#1737=CARTESIAN_POINT('Origin',(67.084,8.68590140628443,8.59403487255774));
#1738=CARTESIAN_POINT('',(67.134,7.13085372220977,7.59528565478583));
#1739=CARTESIAN_POINT('',(68.084,7.13085372220977,8.59403487255774));
#1740=CARTESIAN_POINT('Origin',(67.084,7.13085372220977,8.59403487255774));
#1741=CARTESIAN_POINT('',(68.084,4.87180281256886,8.59403487255774));
#1742=CARTESIAN_POINT('',(68.084,8.68590140628443,8.59403487255774));
#1743=CARTESIAN_POINT('',(67.134,4.87180281256886,7.59528565478583));
#1744=CARTESIAN_POINT('Origin',(67.084,4.87180281256886,8.59403487255774));
#1745=CARTESIAN_POINT('',(67.134,8.68590140628443,7.59528565478583));
#1746=CARTESIAN_POINT('Origin',(67.084,7.13085372220977,6.09528565478583));
#1747=CARTESIAN_POINT('',(67.134,8.63085372220977,6.09528565478583));
#1748=CARTESIAN_POINT('',(68.084,9.62960293998168,6.09528565478583));
#1749=CARTESIAN_POINT('Origin',(67.084,9.62960293998168,6.09528565478583));
#1750=CARTESIAN_POINT('Origin',(68.084,7.13085372220977,6.09528565478583));
#1751=CARTESIAN_POINT('Origin',(67.134,7.13085372220977,6.09528565478583));
#1752=CARTESIAN_POINT('Origin',(67.084,4.87180281256886,6.09528565478583));
#1753=CARTESIAN_POINT('',(68.084,4.25244148785431,8.51605809406292));
#1754=CARTESIAN_POINT('',(67.134,4.5,7.54847616829942));
#1755=CARTESIAN_POINT('Origin',(67.084,4.25244148785431,8.51605809406292));
#1756=CARTESIAN_POINT('Origin',(67.134,4.87180281256886,6.09528565478583));
#1757=CARTESIAN_POINT('Origin',(68.084,4.87180281256886,6.09528565478583));
#1758=CARTESIAN_POINT('Origin',(67.084,9.62960293998168,-1.52735717260709));
#1759=CARTESIAN_POINT('',(67.134,8.63085372220977,-1.56494855721248));
#1760=CARTESIAN_POINT('',(68.084,9.62960293998168,-1.56494855721248));
#1761=CARTESIAN_POINT('Origin',(67.084,9.62960293998168,-1.56494855721248));
#1762=CARTESIAN_POINT('',(68.084,9.62960293998168,-1.52735717260709));
#1763=CARTESIAN_POINT('',(67.134,8.63085372220977,-1.52735717260709));
#1764=CARTESIAN_POINT('Origin',(67.084,4.87180281256886,6.09528565478583));
#1765=CARTESIAN_POINT('',(68.084,3.99541436946273,8.43530508848841));
#1766=CARTESIAN_POINT('',(67.134,4.34570653395496,7.50000011175871));
#1767=CARTESIAN_POINT('Origin',(67.084,3.99541436946273,8.43530508848841));
#1768=CARTESIAN_POINT('Origin',(67.134,4.87180281256886,6.09528565478583));
#1769=CARTESIAN_POINT('Origin',(68.084,4.87180281256886,6.09528565478583));
#1770=CARTESIAN_POINT('Origin',(67.084,7.13085372220977,-1.56494855721248));
#1771=CARTESIAN_POINT('',(67.134,7.13085372220977,-3.06494855721248));
#1772=CARTESIAN_POINT('',(68.084,7.13085372220977,-4.06369777498439));
#1773=CARTESIAN_POINT('Origin',(67.084,7.13085372220977,-4.06369777498439));
#1774=CARTESIAN_POINT('Origin',(68.084,7.13085372220977,-1.56494855721248));
#1775=CARTESIAN_POINT('Origin',(67.134,7.13085372220977,-1.56494855721248));
#1776=CARTESIAN_POINT('Origin',(67.084,4.87180281256886,6.09528565478583));
#1777=CARTESIAN_POINT('',(68.084,2.42002539482157,6.57750463734477));
#1778=CARTESIAN_POINT('Origin',(67.084,2.42002539482157,6.57750463734477));
#1779=CARTESIAN_POINT('Origin',(67.134,4.87180281256886,6.09528565478583));
#1780=CARTESIAN_POINT('Origin',(68.084,4.87180281256886,6.09528565478583));
#1781=CARTESIAN_POINT('Origin',(67.084,11.3154268611049,-4.06369777498439));
#1782=CARTESIAN_POINT('',(67.134,4.87180281256886,-3.06494855721248));
#1783=CARTESIAN_POINT('',(68.084,4.87180281256886,-4.06369777498439));
#1784=CARTESIAN_POINT('Origin',(67.084,4.87180281256886,-4.06369777498439));
#1785=CARTESIAN_POINT('',(68.084,11.3154268611049,-4.06369777498439));
#1786=CARTESIAN_POINT('',(67.134,11.3154268611049,-3.06494855721248));
#1787=CARTESIAN_POINT('Origin',(67.084,4.87180281256886,6.09528565478583));
#1788=CARTESIAN_POINT('',(68.084,2.37305359479695,6.09528565478583));
#1789=CARTESIAN_POINT('',(67.134,3.37180281256886,6.09528565478583));
#1790=CARTESIAN_POINT('Origin',(67.084,2.37305359479695,6.09528565478583));
#1791=CARTESIAN_POINT('Origin',(67.134,4.87180281256886,6.09528565478583));
#1792=CARTESIAN_POINT('Origin',(68.084,4.87180281256886,6.09528565478583));
#1793=CARTESIAN_POINT('Origin',(67.084,4.87180281256886,-1.56494855721248));
#1794=CARTESIAN_POINT('',(67.134,4.5,-3.01813907072607));
#1795=CARTESIAN_POINT('',(68.084,4.25244148785431,-3.98572099648957));
#1796=CARTESIAN_POINT('Origin',(67.084,4.25244148785431,-3.98572099648957));
#1797=CARTESIAN_POINT('Origin',(68.084,4.87180281256886,-1.56494855721248));
#1798=CARTESIAN_POINT('Origin',(67.134,4.87180281256886,-1.56494855721248));
#1799=CARTESIAN_POINT('Origin',(67.084,2.37305359479695,-6.85747427860624));
#1800=CARTESIAN_POINT('',(68.084,2.37305359479695,-1.56494855721248));
#1801=CARTESIAN_POINT('',(67.134,3.37180281256886,-1.56494855721248));
#1802=CARTESIAN_POINT('Origin',(67.084,2.37305359479695,-1.56494855721248));
#1803=CARTESIAN_POINT('',(67.134,3.37180281256886,-6.85747427860624));
#1804=CARTESIAN_POINT('',(68.084,2.37305359479695,-6.85747427860624));
#1805=CARTESIAN_POINT('Origin',(67.084,4.87180281256886,-1.56494855721248));
#1806=CARTESIAN_POINT('',(67.134,3.89116100789304,-2.69999994412065));
#1807=CARTESIAN_POINT('',(68.084,3.2382175176701,-3.45575440065761));
#1808=CARTESIAN_POINT('Origin',(67.084,3.2382175176701,-3.45575440065761));
#1809=CARTESIAN_POINT('Origin',(68.084,4.87180281256886,-1.56494855721248));
#1810=CARTESIAN_POINT('Origin',(67.134,4.87180281256886,-1.56494855721248));
#1811=CARTESIAN_POINT('Origin',(67.084,4.87180281256886,-1.56494855721248));
#1812=CARTESIAN_POINT('',(68.084,2.42002539482157,-2.04716753977142));
#1813=CARTESIAN_POINT('Origin',(67.084,2.42002539482157,-2.04716753977142));
#1814=CARTESIAN_POINT('Origin',(67.134,4.87180281256886,-1.56494855721248));
#1815=CARTESIAN_POINT('Origin',(68.084,4.87180281256886,-1.56494855721248));
#1816=CARTESIAN_POINT('Origin',(67.084,4.87180281256886,-1.56494855721248));
#1817=CARTESIAN_POINT('Origin',(68.084,4.87180281256886,-1.56494855721248));
#1818=CARTESIAN_POINT('Origin',(67.134,4.87180281256886,-1.56494855721248));
#1819=CARTESIAN_POINT('Origin',(68.084,6.09305683060377,2.19948964660482));
#1820=CARTESIAN_POINT('',(68.084,9.91843189732571,10.6607421951569));
#1821=CARTESIAN_POINT('',(68.084,11.4184318973257,9.16074219515693));
#1822=CARTESIAN_POINT('Origin',(68.084,9.91843189732571,9.16074219515693));
#1823=CARTESIAN_POINT('',(68.084,2.26768176388184,10.6607421951569));
#1824=CARTESIAN_POINT('',(68.084,3.43036929724281,10.6607421951569));
#1825=CARTESIAN_POINT('',(68.084,0.767681763881838,9.16074219515693));
#1826=CARTESIAN_POINT('Origin',(68.084,2.26768176388184,9.16074219515693));
#1827=CARTESIAN_POINT('',(68.084,0.767681763881838,-4.76176290194729));
#1828=CARTESIAN_POINT('',(68.084,0.767681763881838,-2.03113662767123));
#1829=CARTESIAN_POINT('',(68.084,2.26768176388184,-6.26176290194729));
#1830=CARTESIAN_POINT('Origin',(68.084,2.26768176388184,-4.76176290194729));
#1831=CARTESIAN_POINT('',(68.084,9.91843189732571,-6.26176290194729));
#1832=CARTESIAN_POINT('',(68.084,8.75574436396474,-6.26176290194729));
#1833=CARTESIAN_POINT('',(68.084,11.4184318973257,-4.76176290194729));
#1834=CARTESIAN_POINT('Origin',(68.084,9.91843189732571,-4.76176290194729));
#1835=CARTESIAN_POINT('',(68.084,11.4184318973257,6.43011592088087));
#1836=CARTESIAN_POINT('Ctrl Pts',(-1.75,-1.,76.25));
#1837=CARTESIAN_POINT('Ctrl Pts',(-1.75,-1.,77.25));
#1838=CARTESIAN_POINT('Ctrl Pts',(-0.75,-1.,77.25));
#1839=CARTESIAN_POINT('Ctrl Pts',(-2.74999999999999,-1.,76.25));
#1840=CARTESIAN_POINT('Ctrl Pts',(-2.74999999999999,-1.,78.25));
#1841=CARTESIAN_POINT('Ctrl Pts',(-0.75,-1.,78.25));
#1842=CARTESIAN_POINT('Ctrl Pts',(-2.74999999999999,0.,76.25));
#1843=CARTESIAN_POINT('Ctrl Pts',(-2.74999999999999,0.,78.25));
#1844=CARTESIAN_POINT('Ctrl Pts',(-0.75,0.,78.25));
#1845=CARTESIAN_POINT('',(-2.75,0.,76.25));
#1846=CARTESIAN_POINT('',(-1.75,-1.,76.25));
#1847=CARTESIAN_POINT('Origin',(-1.75,0.,76.25));
#1848=CARTESIAN_POINT('',(-0.75,-1.,77.25));
#1849=CARTESIAN_POINT('Origin',(-0.75,-1.,76.25));
#1850=CARTESIAN_POINT('',(-0.75,0.,78.25));
#1851=CARTESIAN_POINT('Origin',(-0.75,0.,77.25));
#1852=CARTESIAN_POINT('Origin',(-0.75,0.,76.25));
#1853=CARTESIAN_POINT('Origin',(16.271,0.,77.25));
#1854=CARTESIAN_POINT('',(71.334,-1.,77.25));
#1855=CARTESIAN_POINT('',(71.334,0.,78.25));
#1856=CARTESIAN_POINT('Origin',(71.334,0.,77.25));
#1857=CARTESIAN_POINT('',(16.271,0.,78.25));
#1858=CARTESIAN_POINT('',(16.271,-1.,77.25));
#1859=CARTESIAN_POINT('Ctrl Pts',(71.334,-1.,77.25));
#1860=CARTESIAN_POINT('Ctrl Pts',(72.334,-1.,77.25));
#1861=CARTESIAN_POINT('Ctrl Pts',(72.334,-1.,76.25));
#1862=CARTESIAN_POINT('Ctrl Pts',(71.334,-1.,78.25));
#1863=CARTESIAN_POINT('Ctrl Pts',(73.334,-1.,78.25));
#1864=CARTESIAN_POINT('Ctrl Pts',(73.334,-1.,76.25));
#1865=CARTESIAN_POINT('Ctrl Pts',(71.334,0.,78.25));
#1866=CARTESIAN_POINT('Ctrl Pts',(73.334,0.,78.25));
#1867=CARTESIAN_POINT('Ctrl Pts',(73.334,0.,76.25));
#1868=CARTESIAN_POINT('',(72.334,-1.,76.25));
#1869=CARTESIAN_POINT('',(73.334,0.,76.25));
#1870=CARTESIAN_POINT('Origin',(72.334,0.,76.25));
#1871=CARTESIAN_POINT('Origin',(71.334,0.,76.25));
#1872=CARTESIAN_POINT('Origin',(71.334,-1.,76.25));
#1873=CARTESIAN_POINT('Origin',(72.334,0.,54.5));
#1874=CARTESIAN_POINT('',(73.3272306173753,-0.116159118059096,9.16074219515693));
#1875=CARTESIAN_POINT('',(73.334,0.,10.213177189709));
#1876=CARTESIAN_POINT('Ctrl Pts',(73.3272306173753,-0.116159118059083,9.16074219515693));
#1877=CARTESIAN_POINT('Ctrl Pts',(73.3272306173753,-0.116159118059083,9.30024305689999));
#1878=CARTESIAN_POINT('Ctrl Pts',(73.3280023513635,-0.110039850354096,9.43939186373252));
#1879=CARTESIAN_POINT('Ctrl Pts',(73.3307015112058,-0.082594309171841,9.75276353696539));
#1880=CARTESIAN_POINT('Ctrl Pts',(73.3328954703171,-0.0578271748217715,
9.92600611863393));
#1881=CARTESIAN_POINT('Ctrl Pts',(73.3338663919682,-0.0176022274849528,
10.1307317074504));
#1882=CARTESIAN_POINT('Ctrl Pts',(73.3339681847681,-0.0107398999964755,
10.1638899030324));
#1883=CARTESIAN_POINT('Ctrl Pts',(73.3339978702099,-0.00237446663745734,
10.2023789823337));
#1884=CARTESIAN_POINT('Ctrl Pts',(73.334,-0.00119160406175095,10.2077790520716));
#1885=CARTESIAN_POINT('Ctrl Pts',(73.334,2.22013571883835E-16,10.213177189709));
#1886=CARTESIAN_POINT('',(73.334,0.,54.5));
#1887=CARTESIAN_POINT('',(72.334,-1.,-14.75));
#1888=CARTESIAN_POINT('',(72.334,-1.,54.5));
#1889=CARTESIAN_POINT('',(73.334,0.,-14.75));
#1890=CARTESIAN_POINT('Origin',(72.334,0.,-14.75));
#1891=CARTESIAN_POINT('',(73.334,0.,-5.81419789649933));
#1892=CARTESIAN_POINT('',(73.334,0.,54.5));
#1893=CARTESIAN_POINT('',(73.3272306173753,-0.116159118059096,-4.76176290194728));
#1894=CARTESIAN_POINT('Ctrl Pts',(73.334,3.47279016813018E-16,-5.81419789649933));
#1895=CARTESIAN_POINT('Ctrl Pts',(73.334,-0.00119160414641845,-5.8087997584784));
#1896=CARTESIAN_POINT('Ctrl Pts',(73.3339978702102,-0.00237446655333479,
-5.80339968951958));
#1897=CARTESIAN_POINT('Ctrl Pts',(73.3339681847675,-0.0107399001646832,
-5.76491060904266));
#1898=CARTESIAN_POINT('Ctrl Pts',(73.3338663919671,-0.017602227543055,-5.73175241395529));
#1899=CARTESIAN_POINT('Ctrl Pts',(73.3328954703145,-0.0578271748495424,
-5.52702682523047));
#1900=CARTESIAN_POINT('Ctrl Pts',(73.330701511205,-0.0825943091803766,-5.35378424365829));
#1901=CARTESIAN_POINT('Ctrl Pts',(73.3280023513635,-0.110039850354095,-5.04041257052289));
#1902=CARTESIAN_POINT('Ctrl Pts',(73.3272306173753,-0.116159118059083,-4.90126376369035));
#1903=CARTESIAN_POINT('Ctrl Pts',(73.3272306173753,-0.116159118059082,-4.76176290194728));
#1904=CARTESIAN_POINT('',(73.3272306173753,-0.116159118059081,54.5));
#1905=CARTESIAN_POINT('Ctrl Pts',(72.334,-1.,-14.75));
#1906=CARTESIAN_POINT('Ctrl Pts',(72.334,-1.,-15.75));
#1907=CARTESIAN_POINT('Ctrl Pts',(71.334,-1.,-15.75));
#1908=CARTESIAN_POINT('Ctrl Pts',(73.334,-1.,-14.75));
#1909=CARTESIAN_POINT('Ctrl Pts',(73.334,-1.,-16.75));
#1910=CARTESIAN_POINT('Ctrl Pts',(71.334,-1.,-16.75));
#1911=CARTESIAN_POINT('Ctrl Pts',(73.334,0.,-14.75));
#1912=CARTESIAN_POINT('Ctrl Pts',(73.334,0.,-16.75));
#1913=CARTESIAN_POINT('Ctrl Pts',(71.334,0.,-16.75));
#1914=CARTESIAN_POINT('',(71.334,-1.,-15.75));
#1915=CARTESIAN_POINT('',(71.334,0.,-16.75));
#1916=CARTESIAN_POINT('Origin',(71.334,0.,-15.75));
#1917=CARTESIAN_POINT('Origin',(71.334,0.,-14.75));
#1918=CARTESIAN_POINT('Origin',(71.334,-1.,-14.75));
#1919=CARTESIAN_POINT('Origin',(54.313,0.,-15.75));
#1920=CARTESIAN_POINT('',(-0.750000000000002,-1.,-15.75));
#1921=CARTESIAN_POINT('',(-0.750000000000002,0.,-16.75));
#1922=CARTESIAN_POINT('Origin',(-0.750000000000002,0.,-15.75));
#1923=CARTESIAN_POINT('',(54.313,0.,-16.75));
#1924=CARTESIAN_POINT('',(54.313,-1.,-15.75));
#1925=CARTESIAN_POINT('Ctrl Pts',(-0.750000000000002,-1.,-15.75));
#1926=CARTESIAN_POINT('Ctrl Pts',(-1.75,-1.,-15.75));
#1927=CARTESIAN_POINT('Ctrl Pts',(-1.75,-1.,-14.75));
#1928=CARTESIAN_POINT('Ctrl Pts',(-0.750000000000002,-1.,-16.75));
#1929=CARTESIAN_POINT('Ctrl Pts',(-2.75,-1.,-16.75));
#1930=CARTESIAN_POINT('Ctrl Pts',(-2.75,-1.,-14.75));
#1931=CARTESIAN_POINT('Ctrl Pts',(-0.750000000000002,0.,-16.75));
#1932=CARTESIAN_POINT('Ctrl Pts',(-2.75,0.,-16.75));
#1933=CARTESIAN_POINT('Ctrl Pts',(-2.75,0.,-14.75));
#1934=CARTESIAN_POINT('',(-1.75,-1.,-14.75));
#1935=CARTESIAN_POINT('',(-2.75,0.,-14.75));
#1936=CARTESIAN_POINT('Origin',(-1.75,0.,-14.75));
#1937=CARTESIAN_POINT('Origin',(-0.750000000000002,0.,-14.75));
#1938=CARTESIAN_POINT('Origin',(-0.750000000000002,-1.,-14.75));
#1939=CARTESIAN_POINT('Origin',(-1.75,0.,7.));
#1940=CARTESIAN_POINT('',(-1.75,-1.,7.));
#1941=CARTESIAN_POINT('',(-2.75,0.,7.));
#1942=CARTESIAN_POINT('Origin',(71.334,0.,76.25));
#1943=CARTESIAN_POINT('',(73.334,0.,76.25));
#1944=CARTESIAN_POINT('',(71.334,0.,78.25));
#1945=CARTESIAN_POINT('Origin',(72.334,2.26768176388184,9.16074219515693));
#1946=CARTESIAN_POINT('',(72.334,0.767681763881838,9.16074219515693));
#1947=CARTESIAN_POINT('Origin',(72.334,-0.232318236118162,9.16074219515693));
#1948=CARTESIAN_POINT('',(72.334,2.26768176388184,10.6607421951569));
#1949=CARTESIAN_POINT('Origin',(72.334,2.26768176388184,9.16074219515693));
#1950=CARTESIAN_POINT('',(73.334,2.26768176388184,11.6607421951569));
#1951=CARTESIAN_POINT('Origin',(72.334,2.26768176388184,11.6607421951569));
#1952=CARTESIAN_POINT('Origin',(73.334,2.26768176388184,9.16074219515693));
#1953=CARTESIAN_POINT('Origin',(72.334,-0.232318236118162,35.9941185490264));
#1954=CARTESIAN_POINT('',(72.334,0.767681763881838,-4.76176290194729));
#1955=CARTESIAN_POINT('Origin',(72.334,-0.232318236118162,-4.76176290194728));
#1956=CARTESIAN_POINT('',(72.334,0.767681763881838,35.9941185490264));
#1957=CARTESIAN_POINT('Origin',(72.334,2.26768176388184,-4.76176290194729));
#1958=CARTESIAN_POINT('',(73.334,2.26768176388184,-7.26176290194729));
#1959=CARTESIAN_POINT('Origin',(73.334,2.26768176388184,-4.76176290194729));
#1960=CARTESIAN_POINT('',(72.334,2.26768176388184,-6.26176290194729));
#1961=CARTESIAN_POINT('Origin',(72.334,2.26768176388184,-7.26176290194729));
#1962=CARTESIAN_POINT('Origin',(72.334,2.26768176388184,-4.76176290194729));
#1963=CARTESIAN_POINT('Origin',(73.334,0.,78.25));
#1964=CARTESIAN_POINT('',(73.334,9.91843189732571,11.6607421951569));
#1965=CARTESIAN_POINT('',(73.334,0.383840881940919,11.6607421951569));
#1966=CARTESIAN_POINT('',(73.334,12.4184318973257,9.16074219515693));
#1967=CARTESIAN_POINT('Origin',(73.334,9.91843189732571,9.16074219515693));
#1968=CARTESIAN_POINT('',(73.334,12.4184318973257,-4.76176290194729));
#1969=CARTESIAN_POINT('',(73.334,12.4184318973257,44.4553710975785));
#1970=CARTESIAN_POINT('',(73.334,9.91843189732571,-7.26176290194729));
#1971=CARTESIAN_POINT('Origin',(73.334,9.91843189732571,-4.76176290194729));
#1972=CARTESIAN_POINT('',(73.334,5.70921594866285,-7.26176290194728));
#1973=CARTESIAN_POINT('',(73.334,0.,-14.75));
#1974=CARTESIAN_POINT('Origin',(35.292,-1.,30.75));
#1975=CARTESIAN_POINT('Origin',(-0.75,0.,76.25));
#1976=CARTESIAN_POINT('',(-0.75,0.,78.25));
#1977=CARTESIAN_POINT('',(-2.75,0.,76.25));
#1978=CARTESIAN_POINT('Origin',(-2.75,0.,-16.75));
#1979=CARTESIAN_POINT('',(-2.75,0.,-14.75));
#1980=CARTESIAN_POINT('Origin',(-0.750000000000002,0.,-14.75));
#1981=CARTESIAN_POINT('',(-0.750000000000002,0.,-16.75));
#1982=CARTESIAN_POINT('Origin',(71.334,0.,-14.75));
#1983=CARTESIAN_POINT('',(71.334,0.,-16.75));
#1984=CARTESIAN_POINT('Origin',(72.334,9.91843189732571,-4.76176290194729));
#1985=CARTESIAN_POINT('',(72.334,9.91843189732571,-6.26176290194729));
#1986=CARTESIAN_POINT('Origin',(72.334,9.91843189732571,-7.26176290194729));
#1987=CARTESIAN_POINT('',(72.334,11.4184318973257,-4.76176290194729));
#1988=CARTESIAN_POINT('Origin',(72.334,12.4184318973257,-4.76176290194729));
#1989=CARTESIAN_POINT('Origin',(72.334,9.91843189732571,-4.76176290194729));
#1990=CARTESIAN_POINT('Origin',(72.334,12.4184318973257,44.4553710975785));
#1991=CARTESIAN_POINT('',(72.334,11.4184318973257,9.16074219515693));
#1992=CARTESIAN_POINT('Origin',(72.334,12.4184318973257,9.16074219515693));
#1993=CARTESIAN_POINT('',(72.334,11.4184318973257,44.4553710975785));
#1994=CARTESIAN_POINT('Origin',(72.334,9.91843189732571,9.16074219515693));
#1995=CARTESIAN_POINT('',(72.334,9.91843189732571,10.6607421951569));
#1996=CARTESIAN_POINT('Origin',(72.334,9.91843189732571,11.6607421951569));
#1997=CARTESIAN_POINT('Origin',(72.334,9.91843189732571,9.16074219515693));
#1998=CARTESIAN_POINT('Origin',(72.334,0.383840881940919,11.6607421951569));
#1999=CARTESIAN_POINT('',(72.334,0.383840881940919,10.6607421951569));
#2000=CARTESIAN_POINT('Origin',(72.334,5.70921594866285,-7.26176290194728));
#2001=CARTESIAN_POINT('',(72.334,5.70921594866285,-6.26176290194729));
#2002=CARTESIAN_POINT('Origin',(73.334,0.767681763881838,-6.26176290194729));
#2003=CARTESIAN_POINT('',(68.834,0.767681763881838,-4.76176290194729));
#2004=CARTESIAN_POINT('',(68.834,0.767681763881838,9.16074219515693));
#2005=CARTESIAN_POINT('Origin',(73.334,2.26768176388184,-4.76176290194729));
#2006=CARTESIAN_POINT('',(68.834,2.26768176388184,-6.26176290194729));
#2007=CARTESIAN_POINT('Origin',(73.334,11.4184318973257,-6.26176290194729));
#2008=CARTESIAN_POINT('',(68.834,9.91843189732571,-6.26176290194729));
#2009=CARTESIAN_POINT('Origin',(73.334,9.91843189732571,-4.76176290194729));
#2010=CARTESIAN_POINT('',(68.834,11.4184318973257,-4.76176290194729));
#2011=CARTESIAN_POINT('Origin',(73.334,9.91843189732571,9.16074219515693));
#2012=CARTESIAN_POINT('',(73.334,9.91843189732571,10.6607421951569));
#2013=CARTESIAN_POINT('',(68.834,11.4184318973257,9.16074219515693));
#2014=CARTESIAN_POINT('Origin',(73.334,0.767681763881838,10.6607421951569));
#2015=CARTESIAN_POINT('',(68.834,2.26768176388184,10.6607421951569));
#2016=CARTESIAN_POINT('Origin',(73.334,2.26768176388184,9.16074219515693));
#2017=CARTESIAN_POINT('Origin',(67.134,4.5,-2.69999994412065));
#2018=CARTESIAN_POINT('',(67.134,14.,72.35));
#2019=CARTESIAN_POINT('',(67.134,14.,-10.65));
#2020=CARTESIAN_POINT('Origin',(67.134,2.49999999999999,72.35));
#2021=CARTESIAN_POINT('Origin',(67.134,14.,72.35));
#2022=CARTESIAN_POINT('',(3.05,14.,72.35));
#2023=CARTESIAN_POINT('Origin',(73.334,11.4184318973257,10.6607421951569));
#2024=CARTESIAN_POINT('Origin',(3.05,14.,-10.65));
#2025=CARTESIAN_POINT('',(3.05,14.,-10.65));
#2026=CARTESIAN_POINT('Origin',(3.05,14.,72.35));
#2027=CARTESIAN_POINT('Origin',(73.334,0.,-16.75));
#2028=CARTESIAN_POINT('Origin',(-2.75,0.,78.25));
#2029=UNCERTAINTY_MEASURE_WITH_UNIT(LENGTH_MEASURE(0.01),#2033,
'DISTANCE_ACCURACY_VALUE',
'Maximum model space distance between geometric entities at asserted c
onnectivities');
#2030=UNCERTAINTY_MEASURE_WITH_UNIT(LENGTH_MEASURE(0.01),#2033,
'DISTANCE_ACCURACY_VALUE',
'Maximum model space distance between geometric entities at asserted c
onnectivities');
#2031=(
GEOMETRIC_REPRESENTATION_CONTEXT(3)
GLOBAL_UNCERTAINTY_ASSIGNED_CONTEXT((#2029))
GLOBAL_UNIT_ASSIGNED_CONTEXT((#2033,#2034,#2035))
REPRESENTATION_CONTEXT('','3D')
);
#2032=(
GEOMETRIC_REPRESENTATION_CONTEXT(3)
GLOBAL_UNCERTAINTY_ASSIGNED_CONTEXT((#2030))
GLOBAL_UNIT_ASSIGNED_CONTEXT((#2033,#2034,#2035))
REPRESENTATION_CONTEXT('','3D')
);
#2033=(
LENGTH_UNIT()
NAMED_UNIT(*)
SI_UNIT(.MILLI.,.METRE.)
);
#2034=(
NAMED_UNIT(*)
PLANE_ANGLE_UNIT()
SI_UNIT($,.RADIAN.)
);
#2035=(
NAMED_UNIT(*)
SI_UNIT($,.STERADIAN.)
SOLID_ANGLE_UNIT()
);
#2036=SHAPE_DEFINITION_REPRESENTATION(#2037,#2038);
#2037=PRODUCT_DEFINITION_SHAPE('',$,#2040);
#2038=SHAPE_REPRESENTATION('',(#1129),#2031);
#2039=PRODUCT_DEFINITION_CONTEXT('part definition',#2044,'design');
#2040=PRODUCT_DEFINITION('2026-07-16-01-10-28-554','macropad',#2041,#2039);
#2041=PRODUCT_DEFINITION_FORMATION('',$,#2046);
#2042=PRODUCT_RELATED_PRODUCT_CATEGORY('macropad','macropad',(#2046));
#2043=APPLICATION_PROTOCOL_DEFINITION('international standard',
'automotive_design',2009,#2044);
#2044=APPLICATION_CONTEXT(
'Core Data for Automotive Mechanical Design Process');
#2045=PRODUCT_CONTEXT('part definition',#2044,'mechanical');
#2046=PRODUCT('2026-07-16-01-10-28-554','macropad',$,(#2045));
#2047=PRESENTATION_STYLE_ASSIGNMENT((#2049));
#2048=PRESENTATION_STYLE_ASSIGNMENT((#2050));
#2049=SURFACE_STYLE_USAGE(.BOTH.,#2051);
#2050=SURFACE_STYLE_USAGE(.BOTH.,#2052);
#2051=SURFACE_SIDE_STYLE('',(#2053));
#2052=SURFACE_SIDE_STYLE('',(#2054));
#2053=SURFACE_STYLE_FILL_AREA(#2055);
#2054=SURFACE_STYLE_FILL_AREA(#2056);
#2055=FILL_AREA_STYLE('Steel - Satin',(#2057));
#2056=FILL_AREA_STYLE('Paint - Enamel Glossy (White)',(#2058));
#2057=FILL_AREA_STYLE_COLOUR('Steel - Satin',#2059);
#2058=FILL_AREA_STYLE_COLOUR('Paint - Enamel Glossy (White)',#2060);
#2059=COLOUR_RGB('Steel - Satin',0.627450980392157,0.627450980392157,0.627450980392157);
#2060=COLOUR_RGB('Paint - Enamel Glossy (White)',0.964705882352941,0.964705882352941,
0.952941176470588);
ENDSEC;
END-ISO-10303-21;
